<svg width="360" height="316" viewBox="0 0 360 316" fill="none" xmlns="http://www.w3.org/2000/svg">
<rect x="48" y="107" width="300" height="44" rx="12" fill="#F0F1F0"/>
<rect x="56" y="112" width="34" height="34" rx="17" fill="#E0E1E1" stroke="black" stroke-width="2"/>
<path d="M318.498 129.559C318.498 133.669 321.796 136.967 325.898 136.967C329.999 136.967 333.289 133.669 333.289 129.559C333.289 129.157 333.004 128.864 332.594 128.864C332.201 128.864 331.941 129.157 331.941 129.559C331.941 132.924 329.254 135.619 325.898 135.619C322.541 135.619 319.846 132.924 319.846 129.559C319.846 126.203 322.541 123.516 325.898 123.516C326.534 123.516 327.128 123.566 327.622 123.683L325.119 126.161C324.994 126.295 324.927 126.462 324.927 126.638C324.927 127.023 325.211 127.307 325.588 127.307C325.797 127.307 325.956 127.241 326.074 127.115L329.522 123.65C329.673 123.507 329.732 123.34 329.732 123.147C329.732 122.963 329.656 122.779 329.522 122.645L326.074 119.146C325.956 119.012 325.789 118.945 325.588 118.945C325.211 118.945 324.927 119.247 324.927 119.632C324.927 119.807 324.994 119.975 325.111 120.109L327.338 122.31C326.902 122.227 326.408 122.168 325.898 122.168C321.796 122.168 318.498 125.458 318.498 129.559Z" fill="black"/>
<path d="M73.4176 135.13C73.8408 135.13 74.0605 134.967 74.2152 134.512L75.265 131.639H80.0664L81.1162 134.512C81.2708 134.967 81.4824 135.13 81.9056 135.13C82.3369 135.13 82.6136 134.87 82.6136 134.463C82.6136 134.325 82.5892 134.194 82.5241 134.023L78.7074 123.859C78.5202 123.363 78.1865 123.11 77.6657 123.11C77.1611 123.11 76.8193 123.354 76.6403 123.851L72.8236 134.032C72.7585 134.202 72.734 134.333 72.734 134.471C72.734 134.878 72.9945 135.13 73.4176 135.13ZM75.6637 130.402L77.6413 124.925H77.682L79.6595 130.402H75.6637ZM64.7507 135.106C65.0843 135.106 65.304 134.935 65.4342 134.536L66.1097 132.542H69.2917L69.9671 134.536C70.0973 134.951 70.3171 135.106 70.6589 135.106C71.0658 135.106 71.3424 134.854 71.3424 134.487C71.3424 134.325 71.3018 134.17 71.2367 133.999L68.7057 127.277C68.5186 126.781 68.1768 126.52 67.6966 126.52C67.2246 126.52 66.8828 126.764 66.6956 127.277L64.1647 133.999C64.0996 134.154 64.0752 134.316 64.0752 134.487C64.0752 134.862 64.3356 135.106 64.7507 135.106ZM66.4678 131.484L67.6071 128.091H67.7943L68.9336 131.484H66.4678Z" fill="black"/>
<rect x="49" y="160" width="225" height="132" rx="11" fill="#F0F1F0"/>
<rect width="223" height="44" transform="translate(50 161)" fill="white"/>
<path d="M245.462 188.534C245.462 189.332 245.671 189.936 246.089 190.343C246.507 190.751 247.119 190.954 247.923 190.954H257.807C258.611 190.954 259.22 190.751 259.632 190.343C260.051 189.936 260.26 189.332 260.26 188.534V185.695C260.26 185.63 260.281 185.587 260.324 185.566C260.367 185.539 260.426 185.553 260.501 185.606C260.667 185.724 260.844 185.831 261.032 185.928C261.219 186.019 261.415 186.091 261.619 186.145C261.828 186.199 262.045 186.225 262.27 186.225C262.774 186.225 263.246 186.099 263.686 185.847C264.125 185.59 264.479 185.236 264.747 184.786C265.015 184.335 265.149 183.81 265.149 183.21C265.149 182.614 265.015 182.092 264.747 181.641C264.479 181.186 264.125 180.832 263.686 180.58C263.246 180.328 262.774 180.202 262.27 180.202C262.045 180.202 261.828 180.229 261.619 180.282C261.415 180.336 261.219 180.411 261.032 180.507C260.844 180.598 260.667 180.703 260.501 180.821C260.426 180.875 260.367 180.891 260.324 180.869C260.281 180.842 260.26 180.797 260.26 180.733V177.829C260.26 177.036 260.051 176.435 259.632 176.028C259.22 175.615 258.611 175.409 257.807 175.409H247.923C247.119 175.409 246.507 175.615 246.089 176.028C245.671 176.435 245.462 177.036 245.462 177.829V181.384C245.462 181.722 245.558 181.987 245.751 182.18C245.944 182.368 246.18 182.462 246.459 182.462C246.609 182.462 246.762 182.429 246.918 182.365C247.078 182.295 247.237 182.188 247.392 182.043C247.585 181.866 247.791 181.727 248.011 181.625C248.231 181.523 248.462 181.472 248.703 181.472C249.159 181.472 249.553 181.631 249.885 181.947C250.223 182.258 250.392 182.673 250.392 183.193C250.392 183.714 250.223 184.132 249.885 184.448C249.553 184.759 249.159 184.915 248.703 184.915C248.462 184.915 248.231 184.864 248.011 184.762C247.791 184.654 247.585 184.512 247.392 184.335C247.237 184.196 247.078 184.094 246.918 184.03C246.762 183.96 246.609 183.925 246.459 183.925C246.18 183.925 245.944 184.022 245.751 184.215C245.558 184.402 245.462 184.663 245.462 184.995V188.534ZM246.757 188.469V185.791C246.757 185.603 246.794 185.523 246.869 185.55C246.95 185.571 247.027 185.606 247.102 185.654C247.269 185.756 247.438 185.85 247.609 185.936C247.786 186.016 247.968 186.081 248.156 186.129C248.349 186.177 248.553 186.201 248.767 186.201C249.271 186.201 249.74 186.075 250.175 185.823C250.614 185.571 250.968 185.22 251.236 184.77C251.51 184.314 251.646 183.789 251.646 183.193C251.646 182.598 251.51 182.076 251.236 181.625C250.968 181.17 250.614 180.816 250.175 180.564C249.74 180.312 249.271 180.186 248.767 180.186C248.553 180.186 248.349 180.21 248.156 180.258C247.968 180.301 247.786 180.365 247.609 180.451C247.438 180.531 247.269 180.625 247.102 180.733C247.027 180.781 246.95 180.818 246.869 180.845C246.794 180.867 246.757 180.783 246.757 180.596V177.894C246.757 177.513 246.861 177.221 247.07 177.017C247.279 176.808 247.572 176.703 247.947 176.703H257.783C258.153 176.703 258.442 176.808 258.651 177.017C258.86 177.221 258.965 177.513 258.965 177.894V181.384C258.965 181.722 259.061 181.99 259.254 182.188C259.447 182.387 259.683 182.486 259.962 182.486C260.118 182.486 260.273 182.454 260.429 182.389C260.584 182.32 260.74 182.212 260.895 182.068C261.093 181.891 261.302 181.751 261.522 181.649C261.742 181.542 261.97 181.489 262.206 181.489C262.662 181.489 263.056 181.647 263.388 181.963C263.726 182.279 263.895 182.695 263.895 183.21C263.895 183.73 263.726 184.148 263.388 184.464C263.056 184.78 262.662 184.939 262.206 184.939C261.97 184.939 261.742 184.888 261.522 184.786C261.302 184.679 261.093 184.537 260.895 184.36C260.74 184.215 260.584 184.11 260.429 184.046C260.273 183.976 260.118 183.941 259.962 183.941C259.683 183.941 259.447 184.041 259.254 184.239C259.061 184.437 258.965 184.705 258.965 185.043V188.469C258.965 188.855 258.86 189.15 258.651 189.354C258.442 189.558 258.153 189.659 257.783 189.659H247.947C247.572 189.659 247.279 189.558 247.07 189.354C246.861 189.15 246.757 188.855 246.757 188.469Z" fill="black"/>
<path d="M61.4375 189H62.75V180.391H63.4375L61.8672 178.039L66.3984 189H67.5859L72.125 178.039L70.5469 180.391H71.2344V189H72.5469V177.727H70.9141L67.0547 187.133H66.9297L63.0703 177.727H61.4375V189ZM77.5625 189.148C77.9427 189.148 78.2917 189.096 78.6094 188.992C78.9271 188.883 79.2109 188.724 79.4609 188.516C79.7161 188.307 79.9323 188.055 80.1094 187.758H80.2344V189H81.5938V183.234C81.5938 182.651 81.4688 182.151 81.2188 181.734C80.974 181.312 80.612 180.99 80.1328 180.766C79.6589 180.542 79.0781 180.43 78.3906 180.43C77.7917 180.43 77.2578 180.523 76.7891 180.711C76.3203 180.893 75.9375 181.151 75.6406 181.484C75.349 181.812 75.1667 182.198 75.0938 182.641L75.0859 182.688H76.4453L76.4531 182.664C76.5625 182.336 76.7786 182.083 77.1016 181.906C77.4245 181.724 77.8385 181.633 78.3438 181.633C78.974 181.633 79.4453 181.771 79.7578 182.047C80.0755 182.318 80.2344 182.714 80.2344 183.234V185.859C80.2344 186.26 80.1302 186.62 79.9219 186.938C79.7188 187.255 79.4375 187.508 79.0781 187.695C78.7188 187.878 78.3073 187.969 77.8438 187.969C77.3542 187.969 76.9479 187.852 76.625 187.617C76.3021 187.378 76.1406 187.044 76.1406 186.617V186.602C76.1406 186.185 76.2865 185.862 76.5781 185.633C76.875 185.404 77.3438 185.271 77.9844 185.234L80.9141 185.047V183.961L77.8203 184.148C77.1693 184.185 76.6146 184.305 76.1562 184.508C75.6979 184.711 75.349 184.992 75.1094 185.352C74.8698 185.706 74.75 186.133 74.75 186.633V186.648C74.75 187.159 74.8724 187.602 75.1172 187.977C75.3672 188.352 75.7031 188.641 76.125 188.844C76.5521 189.047 77.0312 189.148 77.5625 189.148ZM84.0781 189H85.4375V184.016C85.4375 183.521 85.526 183.096 85.7031 182.742C85.8854 182.388 86.1406 182.115 86.4688 181.922C86.7969 181.729 87.1849 181.633 87.6328 181.633C88.3047 181.633 88.7995 181.818 89.1172 182.188C89.4401 182.552 89.6016 183.115 89.6016 183.875V189H90.9609V183.547C90.9609 182.547 90.7057 181.779 90.1953 181.242C89.6901 180.701 88.9635 180.43 88.0156 180.43C87.3958 180.43 86.8854 180.555 86.4844 180.805C86.0833 181.049 85.776 181.396 85.5625 181.844H85.4375V180.578H84.0781V189ZM95.7344 189.148C96.1146 189.148 96.4635 189.096 96.7812 188.992C97.099 188.883 97.3828 188.724 97.6328 188.516C97.888 188.307 98.1042 188.055 98.2812 187.758H98.4062V189H99.7656V183.234C99.7656 182.651 99.6406 182.151 99.3906 181.734C99.1458 181.312 98.7839 180.99 98.3047 180.766C97.8307 180.542 97.25 180.43 96.5625 180.43C95.9635 180.43 95.4297 180.523 94.9609 180.711C94.4922 180.893 94.1094 181.151 93.8125 181.484C93.5208 181.812 93.3385 182.198 93.2656 182.641L93.2578 182.688H94.6172L94.625 182.664C94.7344 182.336 94.9505 182.083 95.2734 181.906C95.5964 181.724 96.0104 181.633 96.5156 181.633C97.1458 181.633 97.6172 181.771 97.9297 182.047C98.2474 182.318 98.4062 182.714 98.4062 183.234V185.859C98.4062 186.26 98.3021 186.62 98.0938 186.938C97.8906 187.255 97.6094 187.508 97.25 187.695C96.8906 187.878 96.4792 187.969 96.0156 187.969C95.526 187.969 95.1198 187.852 94.7969 187.617C94.474 187.378 94.3125 187.044 94.3125 186.617V186.602C94.3125 186.185 94.4583 185.862 94.75 185.633C95.0469 185.404 95.5156 185.271 96.1562 185.234L99.0859 185.047V183.961L95.9922 184.148C95.3411 184.185 94.7865 184.305 94.3281 184.508C93.8698 184.711 93.5208 184.992 93.2812 185.352C93.0417 185.706 92.9219 186.133 92.9219 186.633V186.648C92.9219 187.159 93.0443 187.602 93.2891 187.977C93.5391 188.352 93.875 188.641 94.2969 188.844C94.724 189.047 95.2031 189.148 95.7344 189.148ZM105.719 191.969C106.484 191.969 107.148 191.841 107.711 191.586C108.273 191.336 108.706 190.979 109.008 190.516C109.315 190.052 109.469 189.508 109.469 188.883V180.578H108.109V181.969H108.016C107.844 181.651 107.628 181.378 107.367 181.148C107.112 180.919 106.818 180.742 106.484 180.617C106.151 180.492 105.786 180.43 105.391 180.43C104.656 180.43 104.023 180.607 103.492 180.961C102.961 181.31 102.549 181.792 102.258 182.406C101.971 183.016 101.828 183.714 101.828 184.5V184.516C101.828 185.302 101.971 186 102.258 186.609C102.544 187.219 102.951 187.698 103.477 188.047C104.008 188.391 104.635 188.562 105.359 188.562C105.745 188.562 106.104 188.508 106.438 188.398C106.771 188.284 107.07 188.117 107.336 187.898C107.602 187.68 107.823 187.417 108 187.109H108.125V188.812C108.125 189.432 107.911 189.911 107.484 190.25C107.062 190.594 106.474 190.766 105.719 190.766C105.115 190.766 104.63 190.661 104.266 190.453C103.901 190.25 103.682 189.99 103.609 189.672L103.602 189.664H102.195L102.18 189.672C102.253 190.13 102.438 190.531 102.734 190.875C103.036 191.224 103.44 191.492 103.945 191.68C104.451 191.872 105.042 191.969 105.719 191.969ZM105.656 187.359C105.135 187.359 104.693 187.24 104.328 187C103.969 186.755 103.693 186.419 103.5 185.992C103.312 185.565 103.219 185.073 103.219 184.516V184.5C103.219 183.943 103.312 183.448 103.5 183.016C103.693 182.583 103.969 182.245 104.328 182C104.693 181.755 105.135 181.633 105.656 181.633C106.177 181.633 106.622 181.755 106.992 182C107.367 182.245 107.654 182.583 107.852 183.016C108.055 183.448 108.156 183.943 108.156 184.5V184.516C108.156 185.073 108.055 185.565 107.852 185.992C107.654 186.419 107.367 186.755 106.992 187C106.622 187.24 106.177 187.359 105.656 187.359ZM115.438 189.148C115.932 189.148 116.378 189.086 116.773 188.961C117.174 188.831 117.521 188.659 117.812 188.445C118.104 188.227 118.341 187.984 118.523 187.719C118.711 187.448 118.841 187.169 118.914 186.883L118.93 186.82H117.57L117.539 186.891C117.466 187.057 117.339 187.221 117.156 187.383C116.974 187.544 116.742 187.677 116.461 187.781C116.18 187.885 115.849 187.938 115.469 187.938C114.958 187.938 114.516 187.826 114.141 187.602C113.766 187.372 113.477 187.047 113.273 186.625C113.07 186.198 112.969 185.685 112.969 185.086V184.547C112.969 183.917 113.073 183.385 113.281 182.953C113.49 182.521 113.771 182.195 114.125 181.977C114.484 181.753 114.891 181.641 115.344 181.641C115.797 181.641 116.198 181.747 116.547 181.961C116.896 182.169 117.169 182.487 117.367 182.914C117.565 183.341 117.664 183.885 117.664 184.547V185.086L118.336 184.094H112.281V185.18H119.031V184.648C119.031 183.81 118.883 183.076 118.586 182.445C118.294 181.81 117.872 181.315 117.32 180.961C116.773 180.607 116.117 180.43 115.352 180.43C114.591 180.43 113.927 180.615 113.359 180.984C112.792 181.354 112.352 181.867 112.039 182.523C111.732 183.18 111.578 183.943 111.578 184.812V184.82C111.578 185.701 111.732 186.466 112.039 187.117C112.352 187.763 112.794 188.263 113.367 188.617C113.945 188.971 114.635 189.148 115.438 189.148ZM125.812 189H132.797V187.734H127.219V183.859H132.508V182.609H127.219V178.992H132.797V177.727H125.812V189ZM134.5 189H136.023L138.023 185.82H138.148L140.141 189H141.734L138.836 184.734L141.695 180.578H140.172L138.195 183.711H138.07L136.07 180.578H134.469L137.383 184.789L134.5 189ZM146.555 189.062C146.69 189.062 146.823 189.055 146.953 189.039C147.083 189.023 147.214 189.005 147.344 188.984V187.828C147.219 187.839 147.112 187.846 147.023 187.852C146.94 187.857 146.839 187.859 146.719 187.859C146.281 187.859 145.969 187.753 145.781 187.539C145.594 187.32 145.5 186.964 145.5 186.469V181.703H147.344V180.578H145.5V178.398H144.094V180.578H142.766V181.703H144.094V186.812C144.094 187.615 144.286 188.19 144.672 188.539C145.062 188.888 145.69 189.062 146.555 189.062ZM152.703 189.148C153.198 189.148 153.643 189.086 154.039 188.961C154.44 188.831 154.786 188.659 155.078 188.445C155.37 188.227 155.607 187.984 155.789 187.719C155.977 187.448 156.107 187.169 156.18 186.883L156.195 186.82H154.836L154.805 186.891C154.732 187.057 154.604 187.221 154.422 187.383C154.24 187.544 154.008 187.677 153.727 187.781C153.445 187.885 153.115 187.938 152.734 187.938C152.224 187.938 151.781 187.826 151.406 187.602C151.031 187.372 150.742 187.047 150.539 186.625C150.336 186.198 150.234 185.685 150.234 185.086V184.547C150.234 183.917 150.339 183.385 150.547 182.953C150.755 182.521 151.036 182.195 151.391 181.977C151.75 181.753 152.156 181.641 152.609 181.641C153.062 181.641 153.464 181.747 153.812 181.961C154.161 182.169 154.435 182.487 154.633 182.914C154.831 183.341 154.93 183.885 154.93 184.547V185.086L155.602 184.094H149.547V185.18H156.297V184.648C156.297 183.81 156.148 183.076 155.852 182.445C155.56 181.81 155.138 181.315 154.586 180.961C154.039 180.607 153.383 180.43 152.617 180.43C151.857 180.43 151.193 180.615 150.625 180.984C150.057 181.354 149.617 181.867 149.305 182.523C148.997 183.18 148.844 183.943 148.844 184.812V184.82C148.844 185.701 148.997 186.466 149.305 187.117C149.617 187.763 150.06 188.263 150.633 188.617C151.211 188.971 151.901 189.148 152.703 189.148ZM158.406 189H159.766V184.016C159.766 183.521 159.854 183.096 160.031 182.742C160.214 182.388 160.469 182.115 160.797 181.922C161.125 181.729 161.513 181.633 161.961 181.633C162.633 181.633 163.128 181.818 163.445 182.188C163.768 182.552 163.93 183.115 163.93 183.875V189H165.289V183.547C165.289 182.547 165.034 181.779 164.523 181.242C164.018 180.701 163.292 180.43 162.344 180.43C161.724 180.43 161.214 180.555 160.812 180.805C160.411 181.049 160.104 181.396 159.891 181.844H159.766V180.578H158.406V189ZM170.641 189.148C171.281 189.148 171.854 189.042 172.359 188.828C172.87 188.615 173.273 188.318 173.57 187.938C173.867 187.552 174.016 187.109 174.016 186.609V186.594C174.016 185.99 173.82 185.508 173.43 185.148C173.044 184.789 172.456 184.513 171.664 184.32L170.367 184.008C170.039 183.924 169.771 183.828 169.562 183.719C169.354 183.609 169.201 183.482 169.102 183.336C169.003 183.19 168.953 183.023 168.953 182.836V182.82C168.953 182.57 169.029 182.352 169.18 182.164C169.331 181.977 169.536 181.831 169.797 181.727C170.057 181.617 170.354 181.562 170.688 181.562C171.198 181.562 171.612 181.667 171.93 181.875C172.247 182.083 172.451 182.354 172.539 182.688H173.875C173.812 182.229 173.641 181.831 173.359 181.492C173.083 181.154 172.716 180.893 172.258 180.711C171.805 180.523 171.284 180.43 170.695 180.43C170.102 180.43 169.568 180.536 169.094 180.75C168.62 180.964 168.245 181.255 167.969 181.625C167.698 181.995 167.562 182.414 167.562 182.883V182.891C167.562 183.292 167.643 183.641 167.805 183.938C167.966 184.229 168.216 184.477 168.555 184.68C168.893 184.878 169.326 185.039 169.852 185.164L171.156 185.477C171.677 185.602 172.052 185.766 172.281 185.969C172.51 186.167 172.625 186.409 172.625 186.695V186.711C172.625 186.966 172.542 187.193 172.375 187.391C172.208 187.583 171.979 187.737 171.688 187.852C171.401 187.961 171.068 188.016 170.688 188.016C170.151 188.016 169.716 187.909 169.383 187.695C169.049 187.482 168.826 187.201 168.711 186.852H167.32C167.372 187.315 167.542 187.719 167.828 188.062C168.12 188.406 168.505 188.674 168.984 188.867C169.464 189.055 170.016 189.148 170.641 189.148ZM176.156 189H177.516V180.578H176.156V189ZM176.844 178.953C177.104 178.953 177.326 178.862 177.508 178.68C177.69 178.492 177.781 178.271 177.781 178.016C177.781 177.755 177.69 177.534 177.508 177.352C177.326 177.169 177.104 177.078 176.844 177.078C176.589 177.078 176.367 177.169 176.18 177.352C175.997 177.534 175.906 177.755 175.906 178.016C175.906 178.271 175.997 178.492 176.18 178.68C176.367 178.862 176.589 178.953 176.844 178.953ZM183.539 189.148C184.341 189.148 185.031 188.974 185.609 188.625C186.188 188.271 186.633 187.768 186.945 187.117C187.263 186.466 187.422 185.693 187.422 184.797V184.781C187.422 183.88 187.263 183.104 186.945 182.453C186.633 181.802 186.188 181.302 185.609 180.953C185.031 180.604 184.341 180.43 183.539 180.43C182.742 180.43 182.052 180.604 181.469 180.953C180.891 181.302 180.443 181.802 180.125 182.453C179.812 183.104 179.656 183.88 179.656 184.781V184.797C179.656 185.693 179.812 186.466 180.125 187.117C180.443 187.768 180.891 188.271 181.469 188.625C182.052 188.974 182.742 189.148 183.539 189.148ZM183.539 187.945C183.008 187.945 182.557 187.82 182.188 187.57C181.818 187.32 181.534 186.961 181.336 186.492C181.143 186.023 181.047 185.458 181.047 184.797V184.781C181.047 184.115 181.143 183.547 181.336 183.078C181.534 182.609 181.818 182.253 182.188 182.008C182.557 181.758 183.008 181.633 183.539 181.633C184.07 181.633 184.521 181.758 184.891 182.008C185.26 182.253 185.542 182.609 185.734 183.078C185.932 183.547 186.031 184.115 186.031 184.781V184.797C186.031 185.458 185.932 186.023 185.734 186.492C185.542 186.961 185.26 187.32 184.891 187.57C184.521 187.82 184.07 187.945 183.539 187.945ZM189.531 189H190.891V184.016C190.891 183.521 190.979 183.096 191.156 182.742C191.339 182.388 191.594 182.115 191.922 181.922C192.25 181.729 192.638 181.633 193.086 181.633C193.758 181.633 194.253 181.818 194.57 182.188C194.893 182.552 195.055 183.115 195.055 183.875V189H196.414V183.547C196.414 182.547 196.159 181.779 195.648 181.242C195.143 180.701 194.417 180.43 193.469 180.43C192.849 180.43 192.339 180.555 191.938 180.805C191.536 181.049 191.229 181.396 191.016 181.844H190.891V180.578H189.531V189ZM201.766 189.148C202.406 189.148 202.979 189.042 203.484 188.828C203.995 188.615 204.398 188.318 204.695 187.938C204.992 187.552 205.141 187.109 205.141 186.609V186.594C205.141 185.99 204.945 185.508 204.555 185.148C204.169 184.789 203.581 184.513 202.789 184.32L201.492 184.008C201.164 183.924 200.896 183.828 200.688 183.719C200.479 183.609 200.326 183.482 200.227 183.336C200.128 183.19 200.078 183.023 200.078 182.836V182.82C200.078 182.57 200.154 182.352 200.305 182.164C200.456 181.977 200.661 181.831 200.922 181.727C201.182 181.617 201.479 181.562 201.812 181.562C202.323 181.562 202.737 181.667 203.055 181.875C203.372 182.083 203.576 182.354 203.664 182.688H205C204.938 182.229 204.766 181.831 204.484 181.492C204.208 181.154 203.841 180.893 203.383 180.711C202.93 180.523 202.409 180.43 201.82 180.43C201.227 180.43 200.693 180.536 200.219 180.75C199.745 180.964 199.37 181.255 199.094 181.625C198.823 181.995 198.688 182.414 198.688 182.883V182.891C198.688 183.292 198.768 183.641 198.93 183.938C199.091 184.229 199.341 184.477 199.68 184.68C200.018 184.878 200.451 185.039 200.977 185.164L202.281 185.477C202.802 185.602 203.177 185.766 203.406 185.969C203.635 186.167 203.75 186.409 203.75 186.695V186.711C203.75 186.966 203.667 187.193 203.5 187.391C203.333 187.583 203.104 187.737 202.812 187.852C202.526 187.961 202.193 188.016 201.812 188.016C201.276 188.016 200.841 187.909 200.508 187.695C200.174 187.482 199.951 187.201 199.836 186.852H198.445C198.497 187.315 198.667 187.719 198.953 188.062C199.245 188.406 199.63 188.674 200.109 188.867C200.589 189.055 201.141 189.148 201.766 189.148Z" fill="black"/>
<rect width="223" height="44" transform="translate(50 206)" fill="white"/>
<path d="M65.1328 234.266C65.9714 234.266 66.7031 234.128 67.3281 233.852C67.9531 233.57 68.4375 233.174 68.7812 232.664C69.125 232.154 69.2969 231.547 69.2969 230.844V230.836C69.2969 230.294 69.1849 229.826 68.9609 229.43C68.7422 229.029 68.3932 228.69 67.9141 228.414C67.4349 228.138 66.8021 227.914 66.0156 227.742L64.7656 227.461C64 227.294 63.4505 227.057 63.1172 226.75C62.7839 226.443 62.6172 226.065 62.6172 225.617V225.609C62.6172 225.214 62.7266 224.88 62.9453 224.609C63.1693 224.333 63.4688 224.122 63.8438 223.977C64.2188 223.831 64.6406 223.758 65.1094 223.758C65.599 223.753 66.026 223.826 66.3906 223.977C66.7552 224.128 67.0469 224.333 67.2656 224.594C67.4844 224.849 67.6198 225.143 67.6719 225.477L67.6875 225.578H69.0938L69.0859 225.469C69.0495 224.906 68.8594 224.398 68.5156 223.945C68.1771 223.492 67.7188 223.133 67.1406 222.867C66.5625 222.596 65.8984 222.461 65.1484 222.461C64.3724 222.461 63.6849 222.596 63.0859 222.867C62.4922 223.138 62.026 223.513 61.6875 223.992C61.3542 224.471 61.1849 225.023 61.1797 225.648V225.656C61.1797 226.474 61.4349 227.146 61.9453 227.672C62.4609 228.193 63.2839 228.578 64.4141 228.828L65.6641 229.102C66.4401 229.273 67 229.521 67.3438 229.844C67.6875 230.161 67.8594 230.555 67.8594 231.023V231.031C67.8594 231.411 67.7448 231.747 67.5156 232.039C67.2865 232.331 66.9714 232.56 66.5703 232.727C66.1745 232.888 65.7214 232.969 65.2109 232.969C64.6693 232.969 64.1849 232.893 63.7578 232.742C63.3359 232.591 62.9974 232.38 62.7422 232.109C62.4922 231.833 62.349 231.508 62.3125 231.133L62.3047 231.047H60.8984L60.9062 231.133C60.9635 231.742 61.1693 232.284 61.5234 232.758C61.8828 233.227 62.3672 233.596 62.9766 233.867C63.5911 234.133 64.3099 234.266 65.1328 234.266ZM74.9062 234.148C75.401 234.148 75.8464 234.086 76.2422 233.961C76.6432 233.831 76.9896 233.659 77.2812 233.445C77.5729 233.227 77.8099 232.984 77.9922 232.719C78.1797 232.448 78.3099 232.169 78.3828 231.883L78.3984 231.82H77.0391L77.0078 231.891C76.9349 232.057 76.8073 232.221 76.625 232.383C76.4427 232.544 76.2109 232.677 75.9297 232.781C75.6484 232.885 75.3177 232.938 74.9375 232.938C74.4271 232.938 73.9844 232.826 73.6094 232.602C73.2344 232.372 72.9453 232.047 72.7422 231.625C72.5391 231.198 72.4375 230.685 72.4375 230.086V229.547C72.4375 228.917 72.5417 228.385 72.75 227.953C72.9583 227.521 73.2396 227.195 73.5938 226.977C73.9531 226.753 74.3594 226.641 74.8125 226.641C75.2656 226.641 75.6667 226.747 76.0156 226.961C76.3646 227.169 76.638 227.487 76.8359 227.914C77.0339 228.341 77.1328 228.885 77.1328 229.547V230.086L77.8047 229.094H71.75V230.18H78.5V229.648C78.5 228.81 78.3516 228.076 78.0547 227.445C77.763 226.81 77.3411 226.315 76.7891 225.961C76.2422 225.607 75.5859 225.43 74.8203 225.43C74.0599 225.43 73.3958 225.615 72.8281 225.984C72.2604 226.354 71.8203 226.867 71.5078 227.523C71.2005 228.18 71.0469 228.943 71.0469 229.812V229.82C71.0469 230.701 71.2005 231.466 71.5078 232.117C71.8203 232.763 72.263 233.263 72.8359 233.617C73.4141 233.971 74.1042 234.148 74.9062 234.148ZM80.6094 234H81.9688V229.016C81.9688 228.521 82.0573 228.096 82.2344 227.742C82.4167 227.388 82.6719 227.115 83 226.922C83.3281 226.729 83.7161 226.633 84.1641 226.633C84.8359 226.633 85.3307 226.818 85.6484 227.188C85.9714 227.552 86.1328 228.115 86.1328 228.875V234H87.4922V228.547C87.4922 227.547 87.237 226.779 86.7266 226.242C86.2214 225.701 85.4948 225.43 84.5469 225.43C83.9271 225.43 83.4167 225.555 83.0156 225.805C82.6146 226.049 82.3073 226.396 82.0938 226.844H81.9688V225.578H80.6094V234ZM93.0625 234.148C93.4531 234.148 93.8151 234.089 94.1484 233.969C94.4818 233.849 94.7786 233.68 95.0391 233.461C95.2995 233.237 95.5156 232.969 95.6875 232.656H95.8125V234H97.1719V222.234H95.8125V226.906H95.6875C95.5365 226.604 95.3281 226.344 95.0625 226.125C94.7969 225.906 94.4922 225.737 94.1484 225.617C93.8099 225.492 93.4479 225.43 93.0625 225.43C92.349 225.43 91.7266 225.609 91.1953 225.969C90.6693 226.328 90.2604 226.833 89.9688 227.484C89.6771 228.135 89.5312 228.901 89.5312 229.781V229.797C89.5312 230.672 89.6771 231.438 89.9688 232.094C90.2604 232.745 90.6719 233.25 91.2031 233.609C91.7344 233.969 92.3542 234.148 93.0625 234.148ZM93.375 232.945C92.8646 232.945 92.4245 232.82 92.0547 232.57C91.6901 232.315 91.4089 231.953 91.2109 231.484C91.0182 231.01 90.9219 230.448 90.9219 229.797V229.781C90.9219 229.125 91.0182 228.562 91.2109 228.094C91.4089 227.625 91.6901 227.266 92.0547 227.016C92.4245 226.76 92.8646 226.633 93.375 226.633C93.8854 226.633 94.3255 226.76 94.6953 227.016C95.0651 227.271 95.349 227.633 95.5469 228.102C95.7448 228.57 95.8438 229.13 95.8438 229.781V229.797C95.8438 230.443 95.7448 231.003 95.5469 231.477C95.349 231.945 95.0651 232.307 94.6953 232.562C94.3255 232.818 93.8854 232.945 93.375 232.945ZM107.273 234.062C107.409 234.062 107.542 234.055 107.672 234.039C107.802 234.023 107.932 234.005 108.062 233.984V232.828C107.938 232.839 107.831 232.846 107.742 232.852C107.659 232.857 107.557 232.859 107.438 232.859C107 232.859 106.688 232.753 106.5 232.539C106.312 232.32 106.219 231.964 106.219 231.469V226.703H108.062V225.578H106.219V223.398H104.812V225.578H103.484V226.703H104.812V231.812C104.812 232.615 105.005 233.19 105.391 233.539C105.781 233.888 106.409 234.062 107.273 234.062ZM113.445 234.148C114.247 234.148 114.938 233.974 115.516 233.625C116.094 233.271 116.539 232.768 116.852 232.117C117.169 231.466 117.328 230.693 117.328 229.797V229.781C117.328 228.88 117.169 228.104 116.852 227.453C116.539 226.802 116.094 226.302 115.516 225.953C114.938 225.604 114.247 225.43 113.445 225.43C112.648 225.43 111.958 225.604 111.375 225.953C110.797 226.302 110.349 226.802 110.031 227.453C109.719 228.104 109.562 228.88 109.562 229.781V229.797C109.562 230.693 109.719 231.466 110.031 232.117C110.349 232.768 110.797 233.271 111.375 233.625C111.958 233.974 112.648 234.148 113.445 234.148ZM113.445 232.945C112.914 232.945 112.464 232.82 112.094 232.57C111.724 232.32 111.44 231.961 111.242 231.492C111.049 231.023 110.953 230.458 110.953 229.797V229.781C110.953 229.115 111.049 228.547 111.242 228.078C111.44 227.609 111.724 227.253 112.094 227.008C112.464 226.758 112.914 226.633 113.445 226.633C113.977 226.633 114.427 226.758 114.797 227.008C115.167 227.253 115.448 227.609 115.641 228.078C115.839 228.547 115.938 229.115 115.938 229.781V229.797C115.938 230.458 115.839 231.023 115.641 231.492C115.448 231.961 115.167 232.32 114.797 232.57C114.427 232.82 113.977 232.945 113.445 232.945ZM123.969 234H125.328V225.578H123.969V234ZM124.656 223.953C124.917 223.953 125.138 223.862 125.32 223.68C125.503 223.492 125.594 223.271 125.594 223.016C125.594 222.755 125.503 222.534 125.32 222.352C125.138 222.169 124.917 222.078 124.656 222.078C124.401 222.078 124.18 222.169 123.992 222.352C123.81 222.534 123.719 222.755 123.719 223.016C123.719 223.271 123.81 223.492 123.992 223.68C124.18 223.862 124.401 223.953 124.656 223.953ZM130.883 234.062C131.018 234.062 131.151 234.055 131.281 234.039C131.411 234.023 131.542 234.005 131.672 233.984V232.828C131.547 232.839 131.44 232.846 131.352 232.852C131.268 232.857 131.167 232.859 131.047 232.859C130.609 232.859 130.297 232.753 130.109 232.539C129.922 232.32 129.828 231.964 129.828 231.469V226.703H131.672V225.578H129.828V223.398H128.422V225.578H127.094V226.703H128.422V231.812C128.422 232.615 128.615 233.19 129 233.539C129.391 233.888 130.018 234.062 130.883 234.062ZM136.695 234.062C136.831 234.062 136.964 234.055 137.094 234.039C137.224 234.023 137.354 234.005 137.484 233.984V232.828C137.359 232.839 137.253 232.846 137.164 232.852C137.081 232.857 136.979 232.859 136.859 232.859C136.422 232.859 136.109 232.753 135.922 232.539C135.734 232.32 135.641 231.964 135.641 231.469V226.703H137.484V225.578H135.641V223.398H134.234V225.578H132.906V226.703H134.234V231.812C134.234 232.615 134.427 233.19 134.812 233.539C135.203 233.888 135.831 234.062 136.695 234.062ZM140.234 236.953C140.734 236.953 141.154 236.88 141.492 236.734C141.836 236.594 142.133 236.346 142.383 235.992C142.638 235.638 142.883 235.146 143.117 234.516L146.406 225.578H144.977L142.391 233.359L142.93 232.508H142.289L142.828 233.359L140.234 225.578H138.781L141.898 234.008L141.742 234.508C141.591 234.992 141.391 235.333 141.141 235.531C140.896 235.729 140.581 235.828 140.195 235.828C140.102 235.828 140.005 235.826 139.906 235.82C139.807 235.815 139.716 235.805 139.633 235.789V236.906C139.727 236.922 139.828 236.932 139.938 236.938C140.047 236.948 140.146 236.953 140.234 236.953ZM148.141 234.078C148.422 234.078 148.661 233.979 148.859 233.781C149.057 233.578 149.156 233.339 149.156 233.062C149.156 232.781 149.057 232.542 148.859 232.344C148.661 232.146 148.422 232.047 148.141 232.047C147.865 232.047 147.625 232.146 147.422 232.344C147.224 232.542 147.125 232.781 147.125 233.062C147.125 233.339 147.224 233.578 147.422 233.781C147.625 233.979 147.865 234.078 148.141 234.078ZM155.969 234.148C156.682 234.148 157.302 233.969 157.828 233.609C158.359 233.25 158.771 232.745 159.062 232.094C159.354 231.438 159.5 230.672 159.5 229.797V229.781C159.5 228.901 159.354 228.135 159.062 227.484C158.771 226.833 158.359 226.328 157.828 225.969C157.302 225.609 156.682 225.43 155.969 225.43C155.583 225.43 155.219 225.492 154.875 225.617C154.536 225.737 154.234 225.906 153.969 226.125C153.708 226.344 153.5 226.604 153.344 226.906H153.219V222.234H151.859V234H153.219V232.656H153.344C153.516 232.969 153.732 233.237 153.992 233.461C154.253 233.68 154.549 233.849 154.883 233.969C155.216 234.089 155.578 234.148 155.969 234.148ZM155.656 232.945C155.146 232.945 154.706 232.818 154.336 232.562C153.966 232.307 153.682 231.945 153.484 231.477C153.286 231.003 153.188 230.443 153.188 229.797V229.781C153.188 229.13 153.286 228.57 153.484 228.102C153.682 227.633 153.966 227.271 154.336 227.016C154.706 226.76 155.146 226.633 155.656 226.633C156.172 226.633 156.612 226.76 156.977 227.016C157.341 227.266 157.62 227.625 157.812 228.094C158.01 228.562 158.109 229.125 158.109 229.781V229.797C158.109 230.448 158.01 231.01 157.812 231.484C157.62 231.953 157.341 232.315 156.977 232.57C156.612 232.82 156.172 232.945 155.656 232.945ZM161.641 234H163V225.578H161.641V234ZM162.328 223.953C162.589 223.953 162.81 223.862 162.992 223.68C163.174 223.492 163.266 223.271 163.266 223.016C163.266 222.755 163.174 222.534 162.992 222.352C162.81 222.169 162.589 222.078 162.328 222.078C162.073 222.078 161.852 222.169 161.664 222.352C161.482 222.534 161.391 222.755 161.391 223.016C161.391 223.271 161.482 223.492 161.664 223.68C161.852 223.862 162.073 223.953 162.328 223.953ZM168.555 234.062C168.69 234.062 168.823 234.055 168.953 234.039C169.083 234.023 169.214 234.005 169.344 233.984V232.828C169.219 232.839 169.112 232.846 169.023 232.852C168.94 232.857 168.839 232.859 168.719 232.859C168.281 232.859 167.969 232.753 167.781 232.539C167.594 232.32 167.5 231.964 167.5 231.469V226.703H169.344V225.578H167.5V223.398H166.094V225.578H164.766V226.703H166.094V231.812C166.094 232.615 166.286 233.19 166.672 233.539C167.062 233.888 167.69 234.062 168.555 234.062ZM174.367 234.062C174.503 234.062 174.635 234.055 174.766 234.039C174.896 234.023 175.026 234.005 175.156 233.984V232.828C175.031 232.839 174.924 232.846 174.836 232.852C174.753 232.857 174.651 232.859 174.531 232.859C174.094 232.859 173.781 232.753 173.594 232.539C173.406 232.32 173.312 231.964 173.312 231.469V226.703H175.156V225.578H173.312V223.398H171.906V225.578H170.578V226.703H171.906V231.812C171.906 232.615 172.099 233.19 172.484 233.539C172.875 233.888 173.503 234.062 174.367 234.062ZM177.906 236.953C178.406 236.953 178.826 236.88 179.164 236.734C179.508 236.594 179.805 236.346 180.055 235.992C180.31 235.638 180.555 235.146 180.789 234.516L184.078 225.578H182.648L180.062 233.359L180.602 232.508H179.961L180.5 233.359L177.906 225.578H176.453L179.57 234.008L179.414 234.508C179.263 234.992 179.062 235.333 178.812 235.531C178.568 235.729 178.253 235.828 177.867 235.828C177.773 235.828 177.677 235.826 177.578 235.82C177.479 235.815 177.388 235.805 177.305 235.789V236.906C177.398 236.922 177.5 236.932 177.609 236.938C177.719 236.948 177.818 236.953 177.906 236.953Z" fill="black"/>
<g clip-path="url(#clip0_1347_308)">
<mask id="path-9-outside-1_1347_308" maskUnits="userSpaceOnUse" x="241.25" y="216.25" width="23" height="23" fill="black">
<rect fill="white" x="241.25" y="216.25" width="23" height="23"/>
<path fill-rule="evenodd" clip-rule="evenodd" d="M244.75 218.25C243.922 218.25 243.25 218.922 243.25 219.75V236.25C243.25 237.078 243.922 237.75 244.75 237.75H247.75V218.25H244.75ZM256.75 222.75H253.75V225.75H256.75C257.578 225.75 258.25 225.078 258.25 224.25C258.25 223.422 257.578 222.75 256.75 222.75ZM249.25 222.75V225.75V230.25V233.25V237.75H253.75H256.75C260.064 237.75 262.75 235.064 262.75 231.75C262.75 230.331 262.257 229.027 261.434 228C262.257 226.973 262.75 225.669 262.75 224.25C262.75 220.936 260.064 218.25 256.75 218.25H253.75H249.25V222.75ZM253.75 230.25H256.75C257.578 230.25 258.25 230.922 258.25 231.75C258.25 232.578 257.578 233.25 256.75 233.25H253.75V230.25Z"/>
</mask>
<path fill-rule="evenodd" clip-rule="evenodd" d="M244.75 218.25C243.922 218.25 243.25 218.922 243.25 219.75V236.25C243.25 237.078 243.922 237.75 244.75 237.75H247.75V218.25H244.75ZM256.75 222.75H253.75V225.75H256.75C257.578 225.75 258.25 225.078 258.25 224.25C258.25 223.422 257.578 222.75 256.75 222.75ZM249.25 222.75V225.75V230.25V233.25V237.75H253.75H256.75C260.064 237.75 262.75 235.064 262.75 231.75C262.75 230.331 262.257 229.027 261.434 228C262.257 226.973 262.75 225.669 262.75 224.25C262.75 220.936 260.064 218.25 256.75 218.25H253.75H249.25V222.75ZM253.75 230.25H256.75C257.578 230.25 258.25 230.922 258.25 231.75C258.25 232.578 257.578 233.25 256.75 233.25H253.75V230.25Z" fill="#16161D"/>
<path d="M247.75 237.75V239.25H249.25V237.75H247.75ZM247.75 218.25H249.25V216.75H247.75V218.25ZM253.75 222.75V221.25H252.25V222.75H253.75ZM253.75 225.75H252.25V227.25H253.75V225.75ZM249.25 237.75H247.75V239.25H249.25V237.75ZM261.434 228L260.264 227.062L259.512 228L260.264 228.938L261.434 228ZM249.25 218.25V216.75H247.75V218.25H249.25ZM253.75 230.25V228.75H252.25V230.25H253.75ZM253.75 233.25H252.25V234.75H253.75V233.25ZM244.75 219.75V219.75V216.75C243.093 216.75 241.75 218.093 241.75 219.75H244.75ZM244.75 236.25V219.75H241.75V236.25H244.75ZM244.75 236.25H244.75H241.75C241.75 237.907 243.093 239.25 244.75 239.25V236.25ZM247.75 236.25H244.75V239.25H247.75V236.25ZM246.25 218.25V237.75H249.25V218.25H246.25ZM244.75 219.75H247.75V216.75H244.75V219.75ZM253.75 224.25H256.75V221.25H253.75V224.25ZM255.25 225.75V222.75H252.25V225.75H255.25ZM256.75 224.25H253.75V227.25H256.75V224.25ZM256.75 224.25V227.25C258.407 227.25 259.75 225.907 259.75 224.25H256.75ZM256.75 224.25H259.75C259.75 222.593 258.407 221.25 256.75 221.25V224.25ZM250.75 225.75V222.75H247.75V225.75H250.75ZM250.75 230.25V225.75H247.75V230.25H250.75ZM250.75 233.25V230.25H247.75V233.25H250.75ZM250.75 237.75V233.25H247.75V237.75H250.75ZM253.75 236.25H249.25V239.25H253.75V236.25ZM256.75 236.25H253.75V239.25H256.75V236.25ZM261.25 231.75C261.25 234.235 259.235 236.25 256.75 236.25V239.25C260.892 239.25 264.25 235.892 264.25 231.75H261.25ZM260.264 228.938C260.881 229.709 261.25 230.684 261.25 231.75H264.25C264.25 229.978 263.633 228.346 262.604 227.062L260.264 228.938ZM261.25 224.25C261.25 225.316 260.881 226.291 260.264 227.062L262.604 228.938C263.633 227.654 264.25 226.022 264.25 224.25H261.25ZM256.75 219.75C259.235 219.75 261.25 221.765 261.25 224.25H264.25C264.25 220.108 260.892 216.75 256.75 216.75V219.75ZM253.75 219.75H256.75V216.75H253.75V219.75ZM249.25 219.75H253.75V216.75H249.25V219.75ZM250.75 222.75V218.25H247.75V222.75H250.75ZM256.75 228.75H253.75V231.75H256.75V228.75ZM259.75 231.75C259.75 230.093 258.407 228.75 256.75 228.75V231.75H259.75ZM256.75 234.75C258.407 234.75 259.75 233.407 259.75 231.75H256.75V234.75ZM253.75 234.75H256.75V231.75H253.75V234.75ZM252.25 230.25V233.25H255.25V230.25H252.25Z" fill="white" mask="url(#path-9-outside-1_1347_308)"/>
</g>
<rect x="49" y="160" width="225" height="132" rx="11" stroke="black" stroke-width="2"/>
<line x1="11" y1="135" x2="48" y2="135" stroke="#D42A20" stroke-width="2"/>
<line x1="11" y1="188" x2="48" y2="188" stroke="#D42A20" stroke-width="2"/>
<line x1="11" y1="233" x2="48" y2="233" stroke="#D42A20" stroke-width="2"/>
<path d="M15.8984 130H18.2578V118.727H15.9062L12.9922 120.75V122.875L15.7578 120.953H15.8984V130Z" fill="#D42A20"/>
<path d="M12.1406 183H20.2734V181.102H14.6719L15.3047 181.516V180.484L14.6719 181.516L17.3906 178.977C18.0781 178.341 18.6198 177.786 19.0156 177.312C19.4115 176.839 19.6927 176.398 19.8594 175.992C20.026 175.581 20.1094 175.161 20.1094 174.734V174.711C20.1094 174.06 19.9401 173.49 19.6016 173C19.2682 172.51 18.8047 172.128 18.2109 171.852C17.6224 171.576 16.9401 171.438 16.1641 171.438C15.3411 171.438 14.6172 171.591 13.9922 171.898C13.3724 172.206 12.8854 172.633 12.5312 173.18C12.1823 173.727 12.0078 174.359 12.0078 175.078L12.0156 175.117H14.1953V175.078C14.1953 174.719 14.2734 174.406 14.4297 174.141C14.5859 173.87 14.8047 173.659 15.0859 173.508C15.3672 173.352 15.6901 173.273 16.0547 173.273C16.4141 173.273 16.724 173.344 16.9844 173.484C17.2448 173.62 17.4427 173.81 17.5781 174.055C17.7188 174.299 17.7891 174.583 17.7891 174.906V174.93C17.7891 175.195 17.7318 175.453 17.6172 175.703C17.5026 175.948 17.2995 176.237 17.0078 176.57C16.7161 176.898 16.3047 177.318 15.7734 177.828L12.1406 181.414V183Z" fill="#D42A20"/>
<path d="M16.3516 229.25C17.2318 229.25 18 229.107 18.6562 228.82C19.3125 228.534 19.8229 228.133 20.1875 227.617C20.5573 227.102 20.7422 226.503 20.7422 225.82V225.805C20.7422 225.039 20.4896 224.424 19.9844 223.961C19.4792 223.497 18.8073 223.227 17.9688 223.148V223.102C18.4115 223.008 18.8099 222.846 19.1641 222.617C19.5182 222.388 19.7995 222.096 20.0078 221.742C20.2161 221.388 20.3203 220.977 20.3203 220.508V220.492C20.3203 219.888 20.1562 219.362 19.8281 218.914C19.5052 218.461 19.0443 218.109 18.4453 217.859C17.8464 217.604 17.1432 217.477 16.3359 217.477C15.5443 217.477 14.849 217.615 14.25 217.891C13.6562 218.161 13.1823 218.547 12.8281 219.047C12.4792 219.542 12.276 220.128 12.2188 220.805L12.2109 220.898H14.3828L14.3906 220.828C14.4219 220.516 14.5208 220.245 14.6875 220.016C14.8542 219.781 15.0781 219.602 15.3594 219.477C15.6406 219.352 15.9661 219.289 16.3359 219.289C16.7057 219.289 17.0208 219.352 17.2812 219.477C17.5469 219.596 17.7474 219.771 17.8828 220C18.0234 220.224 18.0938 220.492 18.0938 220.805V220.82C18.0938 221.122 18.013 221.391 17.8516 221.625C17.6901 221.854 17.4635 222.034 17.1719 222.164C16.8802 222.294 16.5365 222.359 16.1406 222.359H14.8828V224.039H16.1719C16.8542 224.039 17.3854 224.182 17.7656 224.469C18.151 224.755 18.3438 225.169 18.3438 225.711V225.727C18.3438 226.044 18.2604 226.326 18.0938 226.57C17.9323 226.815 17.7005 227.008 17.3984 227.148C17.1016 227.284 16.7526 227.352 16.3516 227.352C15.9453 227.352 15.5885 227.289 15.2812 227.164C14.974 227.034 14.7292 226.857 14.5469 226.633C14.3698 226.404 14.263 226.143 14.2266 225.852L14.2188 225.766H11.9609L11.9688 225.867C12.026 226.539 12.2396 227.13 12.6094 227.641C12.9792 228.146 13.4818 228.542 14.1172 228.828C14.7578 229.109 15.5026 229.25 16.3516 229.25Z" fill="#D42A20"/>
<path d="M54.3672 40H55.7734V29.9922H59.4062V28.7266H50.7344V29.9922H54.3672V40ZM63.0547 40.1484C63.4661 40.1484 63.8333 40.0938 64.1562 39.9844C64.4844 39.875 64.7656 39.7161 65 39.5078C65.2344 39.2943 65.4193 39.0391 65.5547 38.7422H65.6797V40H67.0391V31.5781H65.6797V36.5625C65.6797 36.9323 65.6302 37.2656 65.5312 37.5625C65.4375 37.8542 65.2943 38.1042 65.1016 38.3125C64.9089 38.5156 64.6693 38.6719 64.3828 38.7812C64.1016 38.8906 63.776 38.9453 63.4062 38.9453C62.7344 38.9453 62.25 38.7604 61.9531 38.3906C61.6615 38.0208 61.5156 37.4583 61.5156 36.7031V31.5781H60.1562V37.0312C60.1562 37.6927 60.263 38.2578 60.4766 38.7266C60.6953 39.1901 61.0208 39.5443 61.4531 39.7891C61.8854 40.0286 62.4193 40.1484 63.0547 40.1484ZM69.5781 40H70.9375V34.7812C70.9375 34.3698 71.0312 34.0104 71.2188 33.7031C71.4115 33.3958 71.6745 33.1562 72.0078 32.9844C72.3411 32.8125 72.724 32.7266 73.1562 32.7266C73.3073 32.7266 73.4479 32.7344 73.5781 32.75C73.7135 32.7604 73.8516 32.7786 73.9922 32.8047V31.4844C73.9245 31.474 73.8255 31.4635 73.6953 31.4531C73.5703 31.4375 73.4427 31.4297 73.3125 31.4297C72.7448 31.4297 72.2682 31.5521 71.8828 31.7969C71.4974 32.0417 71.224 32.3854 71.0625 32.8281H70.9375V31.5781H69.5781V40ZM75.8281 40H77.1875V35.0156C77.1875 34.5208 77.276 34.0964 77.4531 33.7422C77.6354 33.388 77.8906 33.1146 78.2188 32.9219C78.5469 32.7292 78.9349 32.6328 79.3828 32.6328C80.0547 32.6328 80.5495 32.8177 80.8672 33.1875C81.1901 33.5521 81.3516 34.1146 81.3516 34.875V40H82.7109V34.5469C82.7109 33.5469 82.4557 32.7786 81.9453 32.2422C81.4401 31.7005 80.7135 31.4297 79.7656 31.4297C79.1458 31.4297 78.6354 31.5547 78.2344 31.8047C77.8333 32.0495 77.526 32.3958 77.3125 32.8438H77.1875V31.5781H75.8281V40ZM93.1328 40.1484C93.9349 40.1484 94.625 39.974 95.2031 39.625C95.7812 39.2708 96.2266 38.7682 96.5391 38.1172C96.8568 37.4661 97.0156 36.6927 97.0156 35.7969V35.7812C97.0156 34.8802 96.8568 34.1042 96.5391 33.4531C96.2266 32.8021 95.7812 32.3021 95.2031 31.9531C94.625 31.6042 93.9349 31.4297 93.1328 31.4297C92.3359 31.4297 91.6458 31.6042 91.0625 31.9531C90.4844 32.3021 90.0365 32.8021 89.7188 33.4531C89.4062 34.1042 89.25 34.8802 89.25 35.7812V35.7969C89.25 36.6927 89.4062 37.4661 89.7188 38.1172C90.0365 38.7682 90.4844 39.2708 91.0625 39.625C91.6458 39.974 92.3359 40.1484 93.1328 40.1484ZM93.1328 38.9453C92.6016 38.9453 92.151 38.8203 91.7812 38.5703C91.4115 38.3203 91.1276 37.9609 90.9297 37.4922C90.737 37.0234 90.6406 36.4583 90.6406 35.7969V35.7812C90.6406 35.1146 90.737 34.5469 90.9297 34.0781C91.1276 33.6094 91.4115 33.2526 91.7812 33.0078C92.151 32.7578 92.6016 32.6328 93.1328 32.6328C93.6641 32.6328 94.1146 32.7578 94.4844 33.0078C94.8542 33.2526 95.1354 33.6094 95.3281 34.0781C95.526 34.5469 95.625 35.1146 95.625 35.7812V35.7969C95.625 36.4583 95.526 37.0234 95.3281 37.4922C95.1354 37.9609 94.8542 38.3203 94.4844 38.5703C94.1146 38.8203 93.6641 38.9453 93.1328 38.9453ZM99.125 40H100.484V35.0156C100.484 34.5208 100.573 34.0964 100.75 33.7422C100.932 33.388 101.188 33.1146 101.516 32.9219C101.844 32.7292 102.232 32.6328 102.68 32.6328C103.352 32.6328 103.846 32.8177 104.164 33.1875C104.487 33.5521 104.648 34.1146 104.648 34.875V40H106.008V34.5469C106.008 33.5469 105.753 32.7786 105.242 32.2422C104.737 31.7005 104.01 31.4297 103.062 31.4297C102.443 31.4297 101.932 31.5547 101.531 31.8047C101.13 32.0495 100.823 32.3958 100.609 32.8438H100.484V31.5781H99.125V40ZM117.102 40.2891C118.039 40.2891 118.846 40.1406 119.523 39.8438C120.206 39.5417 120.729 39.1198 121.094 38.5781C121.464 38.0312 121.648 37.3854 121.648 36.6406V36.6328C121.648 36.0443 121.529 35.5417 121.289 35.125C121.049 34.7083 120.677 34.362 120.172 34.0859C119.672 33.8099 119.023 33.5911 118.227 33.4297L117.031 33.1875C116.37 33.0521 115.891 32.8698 115.594 32.6406C115.302 32.4062 115.156 32.1068 115.156 31.7422V31.7344C115.156 31.4531 115.237 31.2109 115.398 31.0078C115.56 30.7995 115.786 30.638 116.078 30.5234C116.37 30.4089 116.708 30.3516 117.094 30.3516C117.49 30.3516 117.836 30.4115 118.133 30.5312C118.435 30.6458 118.674 30.8047 118.852 31.0078C119.034 31.2109 119.148 31.4479 119.195 31.7188L119.211 31.8125H121.43L121.422 31.7109C121.375 31.0807 121.174 30.5208 120.82 30.0312C120.466 29.5365 119.974 29.1484 119.344 28.8672C118.719 28.5807 117.969 28.4375 117.094 28.4375C116.26 28.4375 115.521 28.5833 114.875 28.875C114.229 29.1615 113.721 29.5651 113.352 30.0859C112.982 30.6068 112.797 31.2161 112.797 31.9141V31.9219C112.797 32.776 113.062 33.4766 113.594 34.0234C114.125 34.5703 114.977 34.9635 116.148 35.2031L117.336 35.4453C118.039 35.5911 118.539 35.776 118.836 36C119.138 36.224 119.289 36.5208 119.289 36.8906V36.8984C119.289 37.1849 119.198 37.4401 119.016 37.6641C118.839 37.8828 118.591 38.0547 118.273 38.1797C117.956 38.3047 117.586 38.3672 117.164 38.3672C116.727 38.3672 116.339 38.3073 116 38.1875C115.661 38.0677 115.391 37.9036 115.188 37.6953C114.99 37.4818 114.875 37.2344 114.844 36.9531L114.836 36.875H112.562L112.57 37C112.617 37.6667 112.828 38.2474 113.203 38.7422C113.583 39.2318 114.104 39.612 114.766 39.8828C115.427 40.1536 116.206 40.2891 117.102 40.2891ZM127.438 40.1797C128.068 40.1797 128.612 40.1016 129.07 39.9453C129.534 39.7839 129.919 39.5755 130.227 39.3203C130.539 39.0651 130.784 38.7917 130.961 38.5C131.138 38.2031 131.26 37.9193 131.328 37.6484L131.344 37.5703H129.219L129.195 37.6172C129.143 37.7266 129.044 37.849 128.898 37.9844C128.758 38.1146 128.57 38.2292 128.336 38.3281C128.102 38.4271 127.818 38.4766 127.484 38.4766C127.073 38.4766 126.719 38.3854 126.422 38.2031C126.125 38.0208 125.896 37.7578 125.734 37.4141C125.573 37.0703 125.492 36.6562 125.492 36.1719V35.25C125.492 34.75 125.573 34.3281 125.734 33.9844C125.901 33.6354 126.125 33.3724 126.406 33.1953C126.693 33.013 127.018 32.9219 127.383 32.9219C127.753 32.9219 128.076 33.0104 128.352 33.1875C128.633 33.3594 128.852 33.6172 129.008 33.9609C129.169 34.3047 129.25 34.7344 129.25 35.25V36.1641L130.32 34.8125H124.375V36.2422H131.414V35.5312C131.414 34.6615 131.25 33.9036 130.922 33.2578C130.594 32.612 130.125 32.1094 129.516 31.75C128.906 31.3906 128.182 31.2109 127.344 31.2109C126.51 31.2109 125.784 31.3958 125.164 31.7656C124.549 32.1354 124.073 32.6562 123.734 33.3281C123.401 34 123.234 34.7917 123.234 35.7031V35.7109C123.234 36.6328 123.404 37.4271 123.742 38.0938C124.081 38.7604 124.562 39.276 125.188 39.6406C125.818 40 126.568 40.1797 127.438 40.1797ZM133.281 40H135.562V35.0234C135.562 34.6328 135.63 34.2943 135.766 34.0078C135.906 33.7214 136.102 33.5 136.352 33.3438C136.607 33.1823 136.909 33.1016 137.258 33.1016C137.799 33.1016 138.198 33.2578 138.453 33.5703C138.708 33.8828 138.836 34.3438 138.836 34.9531V40H141.117V34.4375C141.117 33.4062 140.865 32.612 140.359 32.0547C139.859 31.4922 139.13 31.2109 138.172 31.2109C137.557 31.2109 137.042 31.3464 136.625 31.6172C136.208 31.888 135.901 32.2578 135.703 32.7266H135.562V31.3984H133.281V40ZM146.398 40.1328C146.805 40.1328 147.174 40.0755 147.508 39.9609C147.841 39.8411 148.13 39.6719 148.375 39.4531C148.625 39.2344 148.823 38.9714 148.969 38.6641H149.109V40H151.391V28.1094H149.109V32.7734H148.969C148.828 32.4557 148.63 32.1849 148.375 31.9609C148.12 31.737 147.823 31.5651 147.484 31.4453C147.151 31.3203 146.789 31.2578 146.398 31.2578C145.669 31.2578 145.044 31.4349 144.523 31.7891C144.003 32.1432 143.602 32.651 143.32 33.3125C143.044 33.974 142.906 34.7656 142.906 35.6875V35.7031C142.906 36.6198 143.047 37.4089 143.328 38.0703C143.615 38.7318 144.018 39.2422 144.539 39.6016C145.065 39.9557 145.685 40.1328 146.398 40.1328ZM147.172 38.2422C146.771 38.2422 146.424 38.1406 146.133 37.9375C145.841 37.7344 145.617 37.4427 145.461 37.0625C145.305 36.6823 145.227 36.2292 145.227 35.7031V35.6875C145.227 35.1615 145.305 34.7109 145.461 34.3359C145.617 33.9557 145.841 33.6641 146.133 33.4609C146.43 33.2526 146.776 33.1484 147.172 33.1484C147.573 33.1484 147.919 33.2526 148.211 33.4609C148.508 33.6641 148.734 33.9557 148.891 34.3359C149.052 34.7109 149.133 35.1641 149.133 35.6953V35.7109C149.133 36.2318 149.052 36.6823 148.891 37.0625C148.734 37.4427 148.51 37.7344 148.219 37.9375C147.927 38.1406 147.578 38.2422 147.172 38.2422ZM161.445 40.0312C161.669 40.0312 161.88 40.0208 162.078 40C162.276 39.9792 162.445 39.9557 162.586 39.9297V38.2344C162.477 38.2448 162.372 38.2552 162.273 38.2656C162.18 38.2708 162.06 38.2734 161.914 38.2734C161.529 38.2734 161.247 38.1849 161.07 38.0078C160.898 37.8255 160.812 37.5417 160.812 37.1562V33.1172H162.586V31.3984H160.812V29.3438H158.508V31.3984H157.18V33.1172H158.508V37.6797C158.508 38.513 158.737 39.1146 159.195 39.4844C159.654 39.849 160.404 40.0312 161.445 40.0312ZM168.242 40.1797C169.128 40.1797 169.885 40.0026 170.516 39.6484C171.151 39.2891 171.638 38.776 171.977 38.1094C172.315 37.4375 172.484 36.6354 172.484 35.7031V35.6875C172.484 34.7604 172.312 33.9635 171.969 33.2969C171.625 32.625 171.135 32.1094 170.5 31.75C169.87 31.3906 169.117 31.2109 168.242 31.2109C167.367 31.2109 166.612 31.3932 165.977 31.7578C165.346 32.1172 164.859 32.6302 164.516 33.2969C164.172 33.9635 164 34.7604 164 35.6875V35.7031C164 36.6354 164.169 37.4375 164.508 38.1094C164.846 38.776 165.333 39.2891 165.969 39.6484C166.604 40.0026 167.362 40.1797 168.242 40.1797ZM168.242 38.3906C167.836 38.3906 167.49 38.2865 167.203 38.0781C166.922 37.8646 166.706 37.5573 166.555 37.1562C166.409 36.7552 166.336 36.2708 166.336 35.7031V35.6875C166.336 35.125 166.411 34.6458 166.562 34.25C166.714 33.849 166.93 33.5417 167.211 33.3281C167.497 33.1094 167.841 33 168.242 33C168.643 33 168.984 33.1094 169.266 33.3281C169.552 33.5417 169.771 33.849 169.922 34.25C170.073 34.6458 170.148 35.125 170.148 35.6875V35.7031C170.148 36.2656 170.073 36.7474 169.922 37.1484C169.771 37.5495 169.555 37.8568 169.273 38.0703C168.992 38.2839 168.648 38.3906 168.242 38.3906ZM178.484 40H180.766V31.3984H178.484V40ZM179.633 30.0781C179.987 30.0781 180.289 29.9557 180.539 29.7109C180.789 29.4609 180.914 29.1615 180.914 28.8125C180.914 28.4583 180.789 28.1589 180.539 27.9141C180.289 27.6641 179.987 27.5391 179.633 27.5391C179.284 27.5391 178.982 27.6641 178.727 27.9141C178.471 28.1589 178.344 28.4583 178.344 28.8125C178.344 29.1615 178.471 29.4609 178.727 29.7109C178.982 29.9557 179.284 30.0781 179.633 30.0781ZM186.633 40.0312C186.857 40.0312 187.068 40.0208 187.266 40C187.464 39.9792 187.633 39.9557 187.773 39.9297V38.2344C187.664 38.2448 187.56 38.2552 187.461 38.2656C187.367 38.2708 187.247 38.2734 187.102 38.2734C186.716 38.2734 186.435 38.1849 186.258 38.0078C186.086 37.8255 186 37.5417 186 37.1562V33.1172H187.773V31.3984H186V29.3438H183.695V31.3984H182.367V33.1172H183.695V37.6797C183.695 38.513 183.924 39.1146 184.383 39.4844C184.841 39.849 185.591 40.0312 186.633 40.0312ZM193.32 40.0312C193.544 40.0312 193.755 40.0208 193.953 40C194.151 39.9792 194.32 39.9557 194.461 39.9297V38.2344C194.352 38.2448 194.247 38.2552 194.148 38.2656C194.055 38.2708 193.935 38.2734 193.789 38.2734C193.404 38.2734 193.122 38.1849 192.945 38.0078C192.773 37.8255 192.688 37.5417 192.688 37.1562V33.1172H194.461V31.3984H192.688V29.3438H190.383V31.3984H189.055V33.1172H190.383V37.6797C190.383 38.513 190.612 39.1146 191.07 39.4844C191.529 39.849 192.279 40.0312 193.32 40.0312ZM197.383 43.0312C198.091 43.0312 198.698 42.9349 199.203 42.7422C199.708 42.5547 200.138 42.237 200.492 41.7891C200.846 41.3464 201.151 40.7474 201.406 39.9922L204.336 31.3984H201.93L199.875 38.8203L200.375 37.9141H199.695L200.219 38.8203L198.164 31.3984H195.656L198.68 40L198.602 40.3281C198.523 40.6615 198.365 40.9089 198.125 41.0703C197.885 41.2318 197.562 41.3125 197.156 41.3125C197.052 41.3125 196.945 41.3099 196.836 41.3047C196.732 41.3047 196.641 41.2995 196.562 41.2891V43.0078C196.698 43.013 196.836 43.0182 196.977 43.0234C197.117 43.0286 197.253 43.0312 197.383 43.0312ZM206.469 40.1953C206.875 40.1953 207.206 40.0651 207.461 39.8047C207.716 39.5443 207.844 39.2214 207.844 38.8359C207.844 38.4505 207.716 38.1302 207.461 37.875C207.206 37.6146 206.875 37.4844 206.469 37.4844C206.073 37.4844 205.745 37.6146 205.484 37.875C205.224 38.1302 205.094 38.4505 205.094 38.8359C205.094 39.2214 205.224 39.5443 205.484 39.8047C205.745 40.0651 206.073 40.1953 206.469 40.1953ZM215.469 40.1328C216.188 40.1328 216.807 39.9557 217.328 39.6016C217.849 39.2422 218.25 38.7318 218.531 38.0703C218.818 37.4089 218.961 36.6198 218.961 35.7031V35.6875C218.961 34.7656 218.82 33.974 218.539 33.3125C218.258 32.651 217.857 32.1432 217.336 31.7891C216.815 31.4349 216.193 31.2578 215.469 31.2578C215.073 31.2578 214.706 31.3203 214.367 31.4453C214.034 31.5651 213.74 31.737 213.484 31.9609C213.234 32.1849 213.036 32.4557 212.891 32.7734H212.75V28.1094H210.469V40H212.75V38.6641H212.891C213.042 38.9714 213.24 39.2344 213.484 39.4531C213.734 39.6719 214.026 39.8411 214.359 39.9609C214.693 40.0755 215.062 40.1328 215.469 40.1328ZM214.688 38.2422C214.286 38.2422 213.938 38.1406 213.641 37.9375C213.349 37.7344 213.122 37.4427 212.961 37.0625C212.805 36.6823 212.727 36.2318 212.727 35.7109V35.6953C212.727 35.1641 212.807 34.7109 212.969 34.3359C213.13 33.9557 213.357 33.6641 213.648 33.4609C213.945 33.2526 214.292 33.1484 214.688 33.1484C215.094 33.1484 215.44 33.2526 215.727 33.4609C216.018 33.6641 216.242 33.9557 216.398 34.3359C216.56 34.7109 216.641 35.1615 216.641 35.6875V35.7031C216.641 36.2292 216.56 36.6823 216.398 37.0625C216.242 37.4427 216.018 37.7344 215.727 37.9375C215.44 38.1406 215.094 38.2422 214.688 38.2422ZM220.828 40H223.109V31.3984H220.828V40ZM221.977 30.0781C222.331 30.0781 222.633 29.9557 222.883 29.7109C223.133 29.4609 223.258 29.1615 223.258 28.8125C223.258 28.4583 223.133 28.1589 222.883 27.9141C222.633 27.6641 222.331 27.5391 221.977 27.5391C221.628 27.5391 221.326 27.6641 221.07 27.9141C220.815 28.1589 220.688 28.4583 220.688 28.8125C220.688 29.1615 220.815 29.4609 221.07 29.7109C221.326 29.9557 221.628 30.0781 221.977 30.0781ZM228.977 40.0312C229.201 40.0312 229.411 40.0208 229.609 40C229.807 39.9792 229.977 39.9557 230.117 39.9297V38.2344C230.008 38.2448 229.904 38.2552 229.805 38.2656C229.711 38.2708 229.591 38.2734 229.445 38.2734C229.06 38.2734 228.779 38.1849 228.602 38.0078C228.43 37.8255 228.344 37.5417 228.344 37.1562V33.1172H230.117V31.3984H228.344V29.3438H226.039V31.3984H224.711V33.1172H226.039V37.6797C226.039 38.513 226.268 39.1146 226.727 39.4844C227.185 39.849 227.935 40.0312 228.977 40.0312ZM235.664 40.0312C235.888 40.0312 236.099 40.0208 236.297 40C236.495 39.9792 236.664 39.9557 236.805 39.9297V38.2344C236.695 38.2448 236.591 38.2552 236.492 38.2656C236.398 38.2708 236.279 38.2734 236.133 38.2734C235.747 38.2734 235.466 38.1849 235.289 38.0078C235.117 37.8255 235.031 37.5417 235.031 37.1562V33.1172H236.805V31.3984H235.031V29.3438H232.727V31.3984H231.398V33.1172H232.727V37.6797C232.727 38.513 232.956 39.1146 233.414 39.4844C233.872 39.849 234.622 40.0312 235.664 40.0312ZM239.727 43.0312C240.435 43.0312 241.042 42.9349 241.547 42.7422C242.052 42.5547 242.482 42.237 242.836 41.7891C243.19 41.3464 243.495 40.7474 243.75 39.9922L246.68 31.3984H244.273L242.219 38.8203L242.719 37.9141H242.039L242.562 38.8203L240.508 31.3984H238L241.023 40L240.945 40.3281C240.867 40.6615 240.708 40.9089 240.469 41.0703C240.229 41.2318 239.906 41.3125 239.5 41.3125C239.396 41.3125 239.289 41.3099 239.18 41.3047C239.076 41.3047 238.984 41.2995 238.906 41.2891V43.0078C239.042 43.013 239.18 43.0182 239.32 43.0234C239.461 43.0286 239.596 43.0312 239.727 43.0312ZM54.0859 59.1484C54.4974 59.1484 54.8646 59.0938 55.1875 58.9844C55.5156 58.875 55.7969 58.7161 56.0312 58.5078C56.2656 58.2943 56.4505 58.0391 56.5859 57.7422H56.7109V59H58.0703V50.5781H56.7109V55.5625C56.7109 55.9323 56.6615 56.2656 56.5625 56.5625C56.4688 56.8542 56.3255 57.1042 56.1328 57.3125C55.9401 57.5156 55.7005 57.6719 55.4141 57.7812C55.1328 57.8906 54.8073 57.9453 54.4375 57.9453C53.7656 57.9453 53.2812 57.7604 52.9844 57.3906C52.6927 57.0208 52.5469 56.4583 52.5469 55.7031V50.5781H51.1875V56.0312C51.1875 56.6927 51.2943 57.2578 51.5078 57.7266C51.7266 58.1901 52.0521 58.5443 52.4844 58.7891C52.9167 59.0286 53.4505 59.1484 54.0859 59.1484ZM60.6094 59H61.9688V54.0156C61.9688 53.5208 62.0573 53.0964 62.2344 52.7422C62.4167 52.388 62.6719 52.1146 63 51.9219C63.3281 51.7292 63.7161 51.6328 64.1641 51.6328C64.8359 51.6328 65.3307 51.8177 65.6484 52.1875C65.9714 52.5521 66.1328 53.1146 66.1328 53.875V59H67.4922V53.5469C67.4922 52.5469 67.237 51.7786 66.7266 51.2422C66.2214 50.7005 65.4948 50.4297 64.5469 50.4297C63.9271 50.4297 63.4167 50.5547 63.0156 50.8047C62.6146 51.0495 62.3073 51.3958 62.0938 51.8438H61.9688V50.5781H60.6094V59ZM73.0625 59.1484C73.4531 59.1484 73.8151 59.0885 74.1484 58.9688C74.4818 58.849 74.7786 58.6797 75.0391 58.4609C75.2995 58.237 75.5156 57.9688 75.6875 57.6562H75.8125V59H77.1719V47.2344H75.8125V51.9062H75.6875C75.5365 51.6042 75.3281 51.3438 75.0625 51.125C74.7969 50.9062 74.4922 50.737 74.1484 50.6172C73.8099 50.4922 73.4479 50.4297 73.0625 50.4297C72.349 50.4297 71.7266 50.6094 71.1953 50.9688C70.6693 51.3281 70.2604 51.8333 69.9688 52.4844C69.6771 53.1354 69.5312 53.901 69.5312 54.7812V54.7969C69.5312 55.6719 69.6771 56.4375 69.9688 57.0938C70.2604 57.7448 70.6719 58.25 71.2031 58.6094C71.7344 58.9688 72.3542 59.1484 73.0625 59.1484ZM73.375 57.9453C72.8646 57.9453 72.4245 57.8203 72.0547 57.5703C71.6901 57.3151 71.4089 56.9531 71.2109 56.4844C71.0182 56.0104 70.9219 55.4479 70.9219 54.7969V54.7812C70.9219 54.125 71.0182 53.5625 71.2109 53.0938C71.4089 52.625 71.6901 52.2656 72.0547 52.0156C72.4245 51.7604 72.8646 51.6328 73.375 51.6328C73.8854 51.6328 74.3255 51.7604 74.6953 52.0156C75.0651 52.2708 75.349 52.6328 75.5469 53.1016C75.7448 53.5703 75.8438 54.1302 75.8438 54.7812V54.7969C75.8438 55.4427 75.7448 56.0026 75.5469 56.4766C75.349 56.9453 75.0651 57.3073 74.6953 57.5625C74.3255 57.8177 73.8854 57.9453 73.375 57.9453ZM83.2188 59.1484C83.7135 59.1484 84.1589 59.0859 84.5547 58.9609C84.9557 58.8307 85.3021 58.6589 85.5938 58.4453C85.8854 58.2266 86.1224 57.9844 86.3047 57.7188C86.4922 57.4479 86.6224 57.1693 86.6953 56.8828L86.7109 56.8203H85.3516L85.3203 56.8906C85.2474 57.0573 85.1198 57.2214 84.9375 57.3828C84.7552 57.5443 84.5234 57.6771 84.2422 57.7812C83.9609 57.8854 83.6302 57.9375 83.25 57.9375C82.7396 57.9375 82.2969 57.8255 81.9219 57.6016C81.5469 57.3724 81.2578 57.0469 81.0547 56.625C80.8516 56.1979 80.75 55.6849 80.75 55.0859V54.5469C80.75 53.9167 80.8542 53.3854 81.0625 52.9531C81.2708 52.5208 81.5521 52.1953 81.9062 51.9766C82.2656 51.7526 82.6719 51.6406 83.125 51.6406C83.5781 51.6406 83.9792 51.7474 84.3281 51.9609C84.6771 52.1693 84.9505 52.487 85.1484 52.9141C85.3464 53.3411 85.4453 53.8854 85.4453 54.5469V55.0859L86.1172 54.0938H80.0625V55.1797H86.8125V54.6484C86.8125 53.8099 86.6641 53.0755 86.3672 52.4453C86.0755 51.8099 85.6536 51.3151 85.1016 50.9609C84.5547 50.6068 83.8984 50.4297 83.1328 50.4297C82.3724 50.4297 81.7083 50.6146 81.1406 50.9844C80.5729 51.3542 80.1328 51.8672 79.8203 52.5234C79.513 53.1797 79.3594 53.9427 79.3594 54.8125V54.8203C79.3594 55.7005 79.513 56.4661 79.8203 57.1172C80.1328 57.763 80.5755 58.263 81.1484 58.6172C81.7266 58.9714 82.4167 59.1484 83.2188 59.1484ZM88.9219 59H90.2812V53.7812C90.2812 53.3698 90.375 53.0104 90.5625 52.7031C90.7552 52.3958 91.0182 52.1562 91.3516 51.9844C91.6849 51.8125 92.0677 51.7266 92.5 51.7266C92.651 51.7266 92.7917 51.7344 92.9219 51.75C93.0573 51.7604 93.1953 51.7786 93.3359 51.8047V50.4844C93.2682 50.474 93.1693 50.4635 93.0391 50.4531C92.9141 50.4375 92.7865 50.4297 92.6562 50.4297C92.0885 50.4297 91.612 50.5521 91.2266 50.7969C90.8411 51.0417 90.5677 51.3854 90.4062 51.8281H90.2812V50.5781H88.9219V59ZM99.6172 59H101.719V51.3281H102.883L100.641 48.0391L104.766 59H106.242L110.375 48.0391L108.125 51.3281H109.289V59H111.391V47.7266H108.688L105.578 55.9766H105.438L102.32 47.7266H99.6172V59ZM116.25 59.1328C116.625 59.1328 116.971 59.0833 117.289 58.9844C117.612 58.8802 117.893 58.7344 118.133 58.5469C118.378 58.3542 118.573 58.125 118.719 57.8594H118.859V59H121.109V53.125C121.109 52.5156 120.969 51.9948 120.688 51.5625C120.411 51.125 120.008 50.7917 119.477 50.5625C118.945 50.3281 118.299 50.2109 117.539 50.2109C116.82 50.2109 116.188 50.3151 115.641 50.5234C115.099 50.7318 114.667 51.0234 114.344 51.3984C114.026 51.7734 113.836 52.2135 113.773 52.7188L113.766 52.7891H115.875L115.891 52.7578C115.979 52.5026 116.151 52.3073 116.406 52.1719C116.667 52.0312 117.003 51.9609 117.414 51.9609C117.883 51.9609 118.24 52.0625 118.484 52.2656C118.734 52.4635 118.859 52.75 118.859 53.125V55.8672C118.859 56.1693 118.779 56.4427 118.617 56.6875C118.456 56.9271 118.237 57.1172 117.961 57.2578C117.685 57.3984 117.37 57.4688 117.016 57.4688C116.62 57.4688 116.297 57.375 116.047 57.1875C115.797 57 115.672 56.7422 115.672 56.4141V56.3984C115.672 56.0859 115.792 55.8385 116.031 55.6562C116.271 55.474 116.635 55.3698 117.125 55.3438L119.984 55.1562V53.7656L116.781 53.9609C116.068 54.0026 115.461 54.1302 114.961 54.3438C114.466 54.5521 114.089 54.8411 113.828 55.2109C113.573 55.5807 113.445 56.0234 113.445 56.5391V56.5547C113.445 57.0755 113.565 57.5312 113.805 57.9219C114.044 58.3073 114.375 58.6068 114.797 58.8203C115.224 59.0286 115.708 59.1328 116.25 59.1328ZM123.344 59H125.625V54.0234C125.625 53.6328 125.693 53.2943 125.828 53.0078C125.969 52.7214 126.164 52.5 126.414 52.3438C126.669 52.1823 126.971 52.1016 127.32 52.1016C127.862 52.1016 128.26 52.2578 128.516 52.5703C128.771 52.8828 128.898 53.3438 128.898 53.9531V59H131.18V53.4375C131.18 52.4062 130.927 51.612 130.422 51.0547C129.922 50.4922 129.193 50.2109 128.234 50.2109C127.62 50.2109 127.104 50.3464 126.688 50.6172C126.271 50.888 125.964 51.2578 125.766 51.7266H125.625V50.3984H123.344V59ZM135.734 59.1328C136.109 59.1328 136.456 59.0833 136.773 58.9844C137.096 58.8802 137.378 58.7344 137.617 58.5469C137.862 58.3542 138.057 58.125 138.203 57.8594H138.344V59H140.594V53.125C140.594 52.5156 140.453 51.9948 140.172 51.5625C139.896 51.125 139.492 50.7917 138.961 50.5625C138.43 50.3281 137.784 50.2109 137.023 50.2109C136.305 50.2109 135.672 50.3151 135.125 50.5234C134.583 50.7318 134.151 51.0234 133.828 51.3984C133.51 51.7734 133.32 52.2135 133.258 52.7188L133.25 52.7891H135.359L135.375 52.7578C135.464 52.5026 135.635 52.3073 135.891 52.1719C136.151 52.0312 136.487 51.9609 136.898 51.9609C137.367 51.9609 137.724 52.0625 137.969 52.2656C138.219 52.4635 138.344 52.75 138.344 53.125V55.8672C138.344 56.1693 138.263 56.4427 138.102 56.6875C137.94 56.9271 137.721 57.1172 137.445 57.2578C137.169 57.3984 136.854 57.4688 136.5 57.4688C136.104 57.4688 135.781 57.375 135.531 57.1875C135.281 57 135.156 56.7422 135.156 56.4141V56.3984C135.156 56.0859 135.276 55.8385 135.516 55.6562C135.755 55.474 136.12 55.3698 136.609 55.3438L139.469 55.1562V53.7656L136.266 53.9609C135.552 54.0026 134.945 54.1302 134.445 54.3438C133.951 54.5521 133.573 54.8411 133.312 55.2109C133.057 55.5807 132.93 56.0234 132.93 56.5391V56.5547C132.93 57.0755 133.049 57.5312 133.289 57.9219C133.529 58.3073 133.859 58.6068 134.281 58.8203C134.708 59.0286 135.193 59.1328 135.734 59.1328ZM146.625 62.0234C147.495 62.0234 148.247 61.888 148.883 61.6172C149.518 61.3516 150.008 60.9714 150.352 60.4766C150.701 59.987 150.875 59.4062 150.875 58.7344V50.3984H148.594V51.8047H148.484C148.333 51.4818 148.133 51.2057 147.883 50.9766C147.633 50.7474 147.341 50.5703 147.008 50.4453C146.68 50.3203 146.318 50.2578 145.922 50.2578C145.188 50.2578 144.555 50.4349 144.023 50.7891C143.497 51.1432 143.091 51.638 142.805 52.2734C142.523 52.9089 142.383 53.6484 142.383 54.4922V54.5078C142.383 55.3203 142.523 56.0365 142.805 56.6562C143.091 57.276 143.495 57.7604 144.016 58.1094C144.542 58.4531 145.164 58.625 145.883 58.625C146.279 58.625 146.641 58.5729 146.969 58.4688C147.302 58.3594 147.594 58.2005 147.844 57.9922C148.099 57.7839 148.305 57.5286 148.461 57.2266H148.602V58.8281C148.602 59.3281 148.432 59.7135 148.094 59.9844C147.755 60.2604 147.281 60.3984 146.672 60.3984C146.167 60.3984 145.766 60.3203 145.469 60.1641C145.177 60.0078 145 59.8047 144.938 59.5547L144.93 59.5234H142.672V59.5625C142.734 60.0469 142.927 60.474 143.25 60.8438C143.573 61.2188 144.016 61.5078 144.578 61.7109C145.146 61.9193 145.828 62.0234 146.625 62.0234ZM146.656 56.875C146.245 56.875 145.896 56.776 145.609 56.5781C145.323 56.375 145.102 56.0964 144.945 55.7422C144.794 55.3828 144.719 54.9688 144.719 54.5V54.4844C144.719 54.0104 144.794 53.5964 144.945 53.2422C145.102 52.8828 145.323 52.6042 145.609 52.4062C145.896 52.2083 146.245 52.1094 146.656 52.1094C147.068 52.1094 147.419 52.2083 147.711 52.4062C148.003 52.6042 148.227 52.8828 148.383 53.2422C148.544 53.6016 148.625 54.0156 148.625 54.4844V54.5C148.625 54.974 148.544 55.388 148.383 55.7422C148.227 56.0964 148.003 56.375 147.711 56.5781C147.419 56.776 147.068 56.875 146.656 56.875ZM156.938 59.1797C157.568 59.1797 158.112 59.1016 158.57 58.9453C159.034 58.7839 159.419 58.5755 159.727 58.3203C160.039 58.0651 160.284 57.7917 160.461 57.5C160.638 57.2031 160.76 56.9193 160.828 56.6484L160.844 56.5703H158.719L158.695 56.6172C158.643 56.7266 158.544 56.849 158.398 56.9844C158.258 57.1146 158.07 57.2292 157.836 57.3281C157.602 57.4271 157.318 57.4766 156.984 57.4766C156.573 57.4766 156.219 57.3854 155.922 57.2031C155.625 57.0208 155.396 56.7578 155.234 56.4141C155.073 56.0703 154.992 55.6562 154.992 55.1719V54.25C154.992 53.75 155.073 53.3281 155.234 52.9844C155.401 52.6354 155.625 52.3724 155.906 52.1953C156.193 52.013 156.518 51.9219 156.883 51.9219C157.253 51.9219 157.576 52.0104 157.852 52.1875C158.133 52.3594 158.352 52.6172 158.508 52.9609C158.669 53.3047 158.75 53.7344 158.75 54.25V55.1641L159.82 53.8125H153.875V55.2422H160.914V54.5312C160.914 53.6615 160.75 52.9036 160.422 52.2578C160.094 51.612 159.625 51.1094 159.016 50.75C158.406 50.3906 157.682 50.2109 156.844 50.2109C156.01 50.2109 155.284 50.3958 154.664 50.7656C154.049 51.1354 153.573 51.6562 153.234 52.3281C152.901 53 152.734 53.7917 152.734 54.7031V54.7109C152.734 55.6328 152.904 56.4271 153.242 57.0938C153.581 57.7604 154.062 58.276 154.688 58.6406C155.318 59 156.068 59.1797 156.938 59.1797ZM167.133 59H174.602V57.0547H169.492V54.2031H174.312V52.3906H169.492V49.6719H174.602V47.7266H167.133V59ZM176.234 59H178.641L180.242 56.1562H180.383L181.992 59H184.516L181.789 54.6484L184.5 50.3984H182.016L180.492 53.25H180.352L178.828 50.3984H176.211L178.93 54.7422L176.234 59ZM189.727 59.0312C189.951 59.0312 190.161 59.0208 190.359 59C190.557 58.9792 190.727 58.9557 190.867 58.9297V57.2344C190.758 57.2448 190.654 57.2552 190.555 57.2656C190.461 57.2708 190.341 57.2734 190.195 57.2734C189.81 57.2734 189.529 57.1849 189.352 57.0078C189.18 56.8255 189.094 56.5417 189.094 56.1562V52.1172H190.867V50.3984H189.094V48.3438H186.789V50.3984H185.461V52.1172H186.789V56.6797C186.789 57.513 187.018 58.1146 187.477 58.4844C187.935 58.849 188.685 59.0312 189.727 59.0312ZM196.484 59.1797C197.115 59.1797 197.659 59.1016 198.117 58.9453C198.581 58.7839 198.966 58.5755 199.273 58.3203C199.586 58.0651 199.831 57.7917 200.008 57.5C200.185 57.2031 200.307 56.9193 200.375 56.6484L200.391 56.5703H198.266L198.242 56.6172C198.19 56.7266 198.091 56.849 197.945 56.9844C197.805 57.1146 197.617 57.2292 197.383 57.3281C197.148 57.4271 196.865 57.4766 196.531 57.4766C196.12 57.4766 195.766 57.3854 195.469 57.2031C195.172 57.0208 194.943 56.7578 194.781 56.4141C194.62 56.0703 194.539 55.6562 194.539 55.1719V54.25C194.539 53.75 194.62 53.3281 194.781 52.9844C194.948 52.6354 195.172 52.3724 195.453 52.1953C195.74 52.013 196.065 51.9219 196.43 51.9219C196.799 51.9219 197.122 52.0104 197.398 52.1875C197.68 52.3594 197.898 52.6172 198.055 52.9609C198.216 53.3047 198.297 53.7344 198.297 54.25V55.1641L199.367 53.8125H193.422V55.2422H200.461V54.5312C200.461 53.6615 200.297 52.9036 199.969 52.2578C199.641 51.612 199.172 51.1094 198.562 50.75C197.953 50.3906 197.229 50.2109 196.391 50.2109C195.557 50.2109 194.831 50.3958 194.211 50.7656C193.596 51.1354 193.12 51.6562 192.781 52.3281C192.448 53 192.281 53.7917 192.281 54.7031V54.7109C192.281 55.6328 192.451 56.4271 192.789 57.0938C193.128 57.7604 193.609 58.276 194.234 58.6406C194.865 59 195.615 59.1797 196.484 59.1797ZM202.328 59H204.609V54.0234C204.609 53.6328 204.677 53.2943 204.812 53.0078C204.953 52.7214 205.148 52.5 205.398 52.3438C205.654 52.1823 205.956 52.1016 206.305 52.1016C206.846 52.1016 207.245 52.2578 207.5 52.5703C207.755 52.8828 207.883 53.3438 207.883 53.9531V59H210.164V53.4375C210.164 52.4062 209.911 51.612 209.406 51.0547C208.906 50.4922 208.177 50.2109 207.219 50.2109C206.604 50.2109 206.089 50.3464 205.672 50.6172C205.255 50.888 204.948 51.2578 204.75 51.7266H204.609V50.3984H202.328V59ZM215.797 59.1797C216.531 59.1797 217.182 59.0651 217.75 58.8359C218.318 58.6016 218.763 58.2734 219.086 57.8516C219.409 57.4297 219.57 56.9349 219.57 56.3672V56.3594C219.57 55.724 219.365 55.2188 218.953 54.8438C218.542 54.4688 217.906 54.1875 217.047 54L215.617 53.6953C215.32 53.6276 215.083 53.5521 214.906 53.4688C214.729 53.3854 214.602 53.2865 214.523 53.1719C214.445 53.0573 214.406 52.9245 214.406 52.7734V52.7656C214.406 52.5729 214.464 52.4062 214.578 52.2656C214.698 52.125 214.859 52.0156 215.062 51.9375C215.266 51.8594 215.497 51.8203 215.758 51.8203C216.185 51.8203 216.523 51.9115 216.773 52.0938C217.023 52.2708 217.18 52.4766 217.242 52.7109L217.25 52.75H219.367V52.7188C219.336 52.2552 219.177 51.8359 218.891 51.4609C218.609 51.0807 218.206 50.7786 217.68 50.5547C217.154 50.3255 216.516 50.2109 215.766 50.2109C215.052 50.2109 214.424 50.3229 213.883 50.5469C213.346 50.7708 212.927 51.0859 212.625 51.4922C212.328 51.8932 212.18 52.3646 212.18 52.9062V52.9141C212.18 53.3411 212.268 53.7161 212.445 54.0391C212.628 54.362 212.901 54.6354 213.266 54.8594C213.63 55.0781 214.086 55.2448 214.633 55.3594L216.07 55.6641C216.508 55.763 216.82 55.888 217.008 56.0391C217.195 56.1901 217.289 56.3802 217.289 56.6094V56.625C217.289 56.8125 217.227 56.9766 217.102 57.1172C216.977 57.2578 216.805 57.3698 216.586 57.4531C216.367 57.5312 216.112 57.5703 215.82 57.5703C215.372 57.5703 215.016 57.4844 214.75 57.3125C214.49 57.1406 214.312 56.9219 214.219 56.6562L214.203 56.625H211.961L211.969 56.6562C212.021 57.1458 212.201 57.5807 212.508 57.9609C212.82 58.3411 213.25 58.6406 213.797 58.8594C214.349 59.0729 215.016 59.1797 215.797 59.1797ZM221.453 59H223.734V50.3984H221.453V59ZM222.602 49.0781C222.956 49.0781 223.258 48.9557 223.508 48.7109C223.758 48.4609 223.883 48.1615 223.883 47.8125C223.883 47.4583 223.758 47.1589 223.508 46.9141C223.258 46.6641 222.956 46.5391 222.602 46.5391C222.253 46.5391 221.951 46.6641 221.695 46.9141C221.44 47.1589 221.312 47.4583 221.312 47.8125C221.312 48.1615 221.44 48.4609 221.695 48.7109C221.951 48.9557 222.253 49.0781 222.602 49.0781ZM229.852 59.1797C230.737 59.1797 231.495 59.0026 232.125 58.6484C232.76 58.2891 233.247 57.776 233.586 57.1094C233.924 56.4375 234.094 55.6354 234.094 54.7031V54.6875C234.094 53.7604 233.922 52.9635 233.578 52.2969C233.234 51.625 232.745 51.1094 232.109 50.75C231.479 50.3906 230.727 50.2109 229.852 50.2109C228.977 50.2109 228.221 50.3932 227.586 50.7578C226.956 51.1172 226.469 51.6302 226.125 52.2969C225.781 52.9635 225.609 53.7604 225.609 54.6875V54.7031C225.609 55.6354 225.779 56.4375 226.117 57.1094C226.456 57.776 226.943 58.2891 227.578 58.6484C228.214 59.0026 228.971 59.1797 229.852 59.1797ZM229.852 57.3906C229.445 57.3906 229.099 57.2865 228.812 57.0781C228.531 56.8646 228.315 56.5573 228.164 56.1562C228.018 55.7552 227.945 55.2708 227.945 54.7031V54.6875C227.945 54.125 228.021 53.6458 228.172 53.25C228.323 52.849 228.539 52.5417 228.82 52.3281C229.107 52.1094 229.451 52 229.852 52C230.253 52 230.594 52.1094 230.875 52.3281C231.161 52.5417 231.38 52.849 231.531 53.25C231.682 53.6458 231.758 54.125 231.758 54.6875V54.7031C231.758 55.2656 231.682 55.7474 231.531 56.1484C231.38 56.5495 231.164 56.8568 230.883 57.0703C230.602 57.2839 230.258 57.3906 229.852 57.3906ZM235.953 59H238.234V54.0234C238.234 53.6328 238.302 53.2943 238.438 53.0078C238.578 52.7214 238.773 52.5 239.023 52.3438C239.279 52.1823 239.581 52.1016 239.93 52.1016C240.471 52.1016 240.87 52.2578 241.125 52.5703C241.38 52.8828 241.508 53.3438 241.508 53.9531V59H243.789V53.4375C243.789 52.4062 243.536 51.612 243.031 51.0547C242.531 50.4922 241.802 50.2109 240.844 50.2109C240.229 50.2109 239.714 50.3464 239.297 50.6172C238.88 50.888 238.573 51.2578 238.375 51.7266H238.234V50.3984H235.953V59ZM249.422 59.1797C250.156 59.1797 250.807 59.0651 251.375 58.8359C251.943 58.6016 252.388 58.2734 252.711 57.8516C253.034 57.4297 253.195 56.9349 253.195 56.3672V56.3594C253.195 55.724 252.99 55.2188 252.578 54.8438C252.167 54.4688 251.531 54.1875 250.672 54L249.242 53.6953C248.945 53.6276 248.708 53.5521 248.531 53.4688C248.354 53.3854 248.227 53.2865 248.148 53.1719C248.07 53.0573 248.031 52.9245 248.031 52.7734V52.7656C248.031 52.5729 248.089 52.4062 248.203 52.2656C248.323 52.125 248.484 52.0156 248.688 51.9375C248.891 51.8594 249.122 51.8203 249.383 51.8203C249.81 51.8203 250.148 51.9115 250.398 52.0938C250.648 52.2708 250.805 52.4766 250.867 52.7109L250.875 52.75H252.992V52.7188C252.961 52.2552 252.802 51.8359 252.516 51.4609C252.234 51.0807 251.831 50.7786 251.305 50.5547C250.779 50.3255 250.141 50.2109 249.391 50.2109C248.677 50.2109 248.049 50.3229 247.508 50.5469C246.971 50.7708 246.552 51.0859 246.25 51.4922C245.953 51.8932 245.805 52.3646 245.805 52.9062V52.9141C245.805 53.3411 245.893 53.7161 246.07 54.0391C246.253 54.362 246.526 54.6354 246.891 54.8594C247.255 55.0781 247.711 55.2448 248.258 55.3594L249.695 55.6641C250.133 55.763 250.445 55.888 250.633 56.0391C250.82 56.1901 250.914 56.3802 250.914 56.6094V56.625C250.914 56.8125 250.852 56.9766 250.727 57.1172C250.602 57.2578 250.43 57.3698 250.211 57.4531C249.992 57.5312 249.737 57.5703 249.445 57.5703C248.997 57.5703 248.641 57.4844 248.375 57.3125C248.115 57.1406 247.938 56.9219 247.844 56.6562L247.828 56.625H245.586L245.594 56.6562C245.646 57.1458 245.826 57.5807 246.133 57.9609C246.445 58.3411 246.875 58.6406 247.422 58.8594C247.974 59.0729 248.641 59.1797 249.422 59.1797ZM259.719 59H261.078V50.5781H259.719V59ZM260.406 48.9531C260.667 48.9531 260.888 48.862 261.07 48.6797C261.253 48.4922 261.344 48.2708 261.344 48.0156C261.344 47.7552 261.253 47.5339 261.07 47.3516C260.888 47.1693 260.667 47.0781 260.406 47.0781C260.151 47.0781 259.93 47.1693 259.742 47.3516C259.56 47.5339 259.469 47.7552 259.469 48.0156C259.469 48.2708 259.56 48.4922 259.742 48.6797C259.93 48.862 260.151 48.9531 260.406 48.9531ZM263.641 59H265V54.0156C265 53.5208 265.089 53.0964 265.266 52.7422C265.448 52.388 265.703 52.1146 266.031 51.9219C266.359 51.7292 266.747 51.6328 267.195 51.6328C267.867 51.6328 268.362 51.8177 268.68 52.1875C269.003 52.5521 269.164 53.1146 269.164 53.875V59H270.523V53.5469C270.523 52.5469 270.268 51.7786 269.758 51.2422C269.253 50.7005 268.526 50.4297 267.578 50.4297C266.958 50.4297 266.448 50.5547 266.047 50.8047C265.646 51.0495 265.339 51.3958 265.125 51.8438H265V50.5781H263.641V59ZM54.2578 78.0625C54.3932 78.0625 54.526 78.0547 54.6562 78.0391C54.7865 78.0234 54.9167 78.0052 55.0469 77.9844V76.8281C54.9219 76.8385 54.8151 76.8464 54.7266 76.8516C54.6432 76.8568 54.5417 76.8594 54.4219 76.8594C53.9844 76.8594 53.6719 76.7526 53.4844 76.5391C53.2969 76.3203 53.2031 75.9635 53.2031 75.4688V70.7031H55.0469V69.5781H53.2031V67.3984H51.7969V69.5781H50.4688V70.7031H51.7969V75.8125C51.7969 76.6146 51.9896 77.1901 52.375 77.5391C52.7656 77.888 53.3932 78.0625 54.2578 78.0625ZM57.1562 78H58.5156V73.0156C58.5156 72.5208 58.6042 72.0964 58.7812 71.7422C58.9635 71.388 59.2188 71.1146 59.5469 70.9219C59.875 70.7292 60.263 70.6328 60.7109 70.6328C61.3828 70.6328 61.8776 70.8177 62.1953 71.1875C62.5182 71.5521 62.6797 72.1146 62.6797 72.875V78H64.0391V72.5469C64.0391 71.8802 63.9245 71.3151 63.6953 70.8516C63.4661 70.388 63.1328 70.0365 62.6953 69.7969C62.2578 69.5521 61.724 69.4297 61.0938 69.4297C60.474 69.4297 59.9635 69.5547 59.5625 69.8047C59.1615 70.0495 58.8542 70.3958 58.6406 70.8438H58.5156V66.2344H57.1562V78ZM69.9375 78.1484C70.4323 78.1484 70.8776 78.0859 71.2734 77.9609C71.6745 77.8307 72.0208 77.6589 72.3125 77.4453C72.6042 77.2266 72.8411 76.9844 73.0234 76.7188C73.2109 76.4479 73.3411 76.1693 73.4141 75.8828L73.4297 75.8203H72.0703L72.0391 75.8906C71.9661 76.0573 71.8385 76.2214 71.6562 76.3828C71.474 76.5443 71.2422 76.6771 70.9609 76.7812C70.6797 76.8854 70.349 76.9375 69.9688 76.9375C69.4583 76.9375 69.0156 76.8255 68.6406 76.6016C68.2656 76.3724 67.9766 76.0469 67.7734 75.625C67.5703 75.1979 67.4688 74.6849 67.4688 74.0859V73.5469C67.4688 72.9167 67.5729 72.3854 67.7812 71.9531C67.9896 71.5208 68.2708 71.1953 68.625 70.9766C68.9844 70.7526 69.3906 70.6406 69.8438 70.6406C70.2969 70.6406 70.6979 70.7474 71.0469 70.9609C71.3958 71.1693 71.6693 71.487 71.8672 71.9141C72.0651 72.3411 72.1641 72.8854 72.1641 73.5469V74.0859L72.8359 73.0938H66.7812V74.1797H73.5312V73.6484C73.5312 72.8099 73.3828 72.0755 73.0859 71.4453C72.7943 70.8099 72.3724 70.3151 71.8203 69.9609C71.2734 69.6068 70.6172 69.4297 69.8516 69.4297C69.0911 69.4297 68.4271 69.6146 67.8594 69.9844C67.2917 70.3542 66.8516 70.8672 66.5391 71.5234C66.2318 72.1797 66.0781 72.9427 66.0781 73.8125V73.8203C66.0781 74.7005 66.2318 75.4661 66.5391 76.1172C66.8516 76.763 67.2943 77.263 67.8672 77.6172C68.4453 77.9714 69.1354 78.1484 69.9375 78.1484ZM84.2734 78.2891C85.2109 78.2891 86.0182 78.1406 86.6953 77.8438C87.3776 77.5417 87.901 77.1198 88.2656 76.5781C88.6354 76.0312 88.8203 75.3854 88.8203 74.6406V74.6328C88.8203 74.0443 88.7005 73.5417 88.4609 73.125C88.2214 72.7083 87.849 72.362 87.3438 72.0859C86.8438 71.8099 86.1953 71.5911 85.3984 71.4297L84.2031 71.1875C83.5417 71.0521 83.0625 70.8698 82.7656 70.6406C82.474 70.4062 82.3281 70.1068 82.3281 69.7422V69.7344C82.3281 69.4531 82.4089 69.2109 82.5703 69.0078C82.7318 68.7995 82.9583 68.638 83.25 68.5234C83.5417 68.4089 83.8802 68.3516 84.2656 68.3516C84.6615 68.3516 85.0078 68.4115 85.3047 68.5312C85.6068 68.6458 85.8464 68.8047 86.0234 69.0078C86.2057 69.2109 86.3203 69.4479 86.3672 69.7188L86.3828 69.8125H88.6016L88.5938 69.7109C88.5469 69.0807 88.3464 68.5208 87.9922 68.0312C87.638 67.5365 87.1458 67.1484 86.5156 66.8672C85.8906 66.5807 85.1406 66.4375 84.2656 66.4375C83.4323 66.4375 82.6927 66.5833 82.0469 66.875C81.401 67.1615 80.8932 67.5651 80.5234 68.0859C80.1536 68.6068 79.9688 69.2161 79.9688 69.9141V69.9219C79.9688 70.776 80.2344 71.4766 80.7656 72.0234C81.2969 72.5703 82.1484 72.9635 83.3203 73.2031L84.5078 73.4453C85.2109 73.5911 85.7109 73.776 86.0078 74C86.3099 74.224 86.4609 74.5208 86.4609 74.8906V74.8984C86.4609 75.1849 86.3698 75.4401 86.1875 75.6641C86.0104 75.8828 85.763 76.0547 85.4453 76.1797C85.1276 76.3047 84.7578 76.3672 84.3359 76.3672C83.8984 76.3672 83.5104 76.3073 83.1719 76.1875C82.8333 76.0677 82.5625 75.9036 82.3594 75.6953C82.1615 75.4818 82.0469 75.2344 82.0156 74.9531L82.0078 74.875H79.7344L79.7422 75C79.7891 75.6667 80 76.2474 80.375 76.7422C80.7552 77.2318 81.276 77.612 81.9375 77.8828C82.599 78.1536 83.3776 78.2891 84.2734 78.2891ZM93.0469 78.1328C93.4219 78.1328 93.7682 78.0833 94.0859 77.9844C94.4089 77.8802 94.6901 77.7344 94.9297 77.5469C95.1745 77.3542 95.3698 77.125 95.5156 76.8594H95.6562V78H97.9062V72.125C97.9062 71.5156 97.7656 70.9948 97.4844 70.5625C97.2083 70.125 96.8047 69.7917 96.2734 69.5625C95.7422 69.3281 95.0964 69.2109 94.3359 69.2109C93.6172 69.2109 92.9844 69.3151 92.4375 69.5234C91.8958 69.7318 91.4635 70.0234 91.1406 70.3984C90.8229 70.7734 90.6328 71.2135 90.5703 71.7188L90.5625 71.7891H92.6719L92.6875 71.7578C92.776 71.5026 92.9479 71.3073 93.2031 71.1719C93.4635 71.0312 93.7995 70.9609 94.2109 70.9609C94.6797 70.9609 95.0365 71.0625 95.2812 71.2656C95.5312 71.4635 95.6562 71.75 95.6562 72.125V74.8672C95.6562 75.1693 95.5755 75.4427 95.4141 75.6875C95.2526 75.9271 95.0339 76.1172 94.7578 76.2578C94.4818 76.3984 94.1667 76.4688 93.8125 76.4688C93.4167 76.4688 93.0938 76.375 92.8438 76.1875C92.5938 76 92.4688 75.7422 92.4688 75.4141V75.3984C92.4688 75.0859 92.5885 74.8385 92.8281 74.6562C93.0677 74.474 93.4323 74.3698 93.9219 74.3438L96.7812 74.1562V72.7656L93.5781 72.9609C92.8646 73.0026 92.2578 73.1302 91.7578 73.3438C91.263 73.5521 90.8854 73.8411 90.625 74.2109C90.3698 74.5807 90.2422 75.0234 90.2422 75.5391V75.5547C90.2422 76.0755 90.362 76.5312 90.6016 76.9219C90.8411 77.3073 91.1719 77.6068 91.5938 77.8203C92.0208 78.0286 92.5052 78.1328 93.0469 78.1328ZM100.805 78H103.086V71.1172H104.859V69.3984H103.039V68.75C103.039 68.375 103.13 68.0885 103.312 67.8906C103.495 67.6875 103.807 67.5859 104.25 67.5859C104.396 67.5859 104.526 67.5911 104.641 67.6016C104.76 67.6068 104.857 67.6172 104.93 67.6328V66.1094C104.763 66.0833 104.583 66.0625 104.391 66.0469C104.203 66.0312 103.992 66.0234 103.758 66.0234C103.065 66.0234 102.5 66.1198 102.062 66.3125C101.63 66.5 101.312 66.7839 101.109 67.1641C100.906 67.5443 100.805 68.0208 100.805 68.5938V69.3984H99.4141V71.1172H100.805V78ZM108.75 78.1328C109.125 78.1328 109.471 78.0833 109.789 77.9844C110.112 77.8802 110.393 77.7344 110.633 77.5469C110.878 77.3542 111.073 77.125 111.219 76.8594H111.359V78H113.609V72.125C113.609 71.5156 113.469 70.9948 113.188 70.5625C112.911 70.125 112.508 69.7917 111.977 69.5625C111.445 69.3281 110.799 69.2109 110.039 69.2109C109.32 69.2109 108.688 69.3151 108.141 69.5234C107.599 69.7318 107.167 70.0234 106.844 70.3984C106.526 70.7734 106.336 71.2135 106.273 71.7188L106.266 71.7891H108.375L108.391 71.7578C108.479 71.5026 108.651 71.3073 108.906 71.1719C109.167 71.0312 109.503 70.9609 109.914 70.9609C110.383 70.9609 110.74 71.0625 110.984 71.2656C111.234 71.4635 111.359 71.75 111.359 72.125V74.8672C111.359 75.1693 111.279 75.4427 111.117 75.6875C110.956 75.9271 110.737 76.1172 110.461 76.2578C110.185 76.3984 109.87 76.4688 109.516 76.4688C109.12 76.4688 108.797 76.375 108.547 76.1875C108.297 76 108.172 75.7422 108.172 75.4141V75.3984C108.172 75.0859 108.292 74.8385 108.531 74.6562C108.771 74.474 109.135 74.3698 109.625 74.3438L112.484 74.1562V72.7656L109.281 72.9609C108.568 73.0026 107.961 73.1302 107.461 73.3438C106.966 73.5521 106.589 73.8411 106.328 74.2109C106.073 74.5807 105.945 75.0234 105.945 75.5391V75.5547C105.945 76.0755 106.065 76.5312 106.305 76.9219C106.544 77.3073 106.875 77.6068 107.297 77.8203C107.724 78.0286 108.208 78.1328 108.75 78.1328ZM115.844 78H118.125V73.1875C118.125 72.7812 118.211 72.4323 118.383 72.1406C118.555 71.849 118.799 71.625 119.117 71.4688C119.435 71.3073 119.81 71.2266 120.242 71.2266C120.419 71.2266 120.594 71.2396 120.766 71.2656C120.943 71.2865 121.117 71.3177 121.289 71.3594V69.3672C121.174 69.3359 121.042 69.3099 120.891 69.2891C120.745 69.2682 120.594 69.2578 120.438 69.2578C119.88 69.2578 119.414 69.388 119.039 69.6484C118.664 69.9036 118.406 70.2656 118.266 70.7344H118.125V69.3984H115.844V78ZM122.828 78H125.109V69.3984H122.828V78ZM123.977 68.0781C124.331 68.0781 124.633 67.9557 124.883 67.7109C125.133 67.4609 125.258 67.1615 125.258 66.8125C125.258 66.4583 125.133 66.1589 124.883 65.9141C124.633 65.6641 124.331 65.5391 123.977 65.5391C123.628 65.5391 123.326 65.6641 123.07 65.9141C122.815 66.1589 122.688 66.4583 122.688 66.8125C122.688 67.1615 122.815 67.4609 123.07 67.7109C123.326 67.9557 123.628 68.0781 123.977 68.0781ZM130.953 78H133.43L136.188 68.9766H136.875V66.7266H134.867L130.953 78ZM133.047 75.2656H139.414L138.836 73.5H133.625L133.047 75.2656ZM139.078 78H141.562L137.641 66.7266H136.328V68.9766L139.078 78ZM145.852 78.1328C146.258 78.1328 146.628 78.0755 146.961 77.9609C147.294 77.8411 147.583 77.6719 147.828 77.4531C148.078 77.2344 148.276 76.9714 148.422 76.6641H148.562V78H150.844V66.1094H148.562V70.7734H148.422C148.281 70.4557 148.083 70.1849 147.828 69.9609C147.573 69.737 147.276 69.5651 146.938 69.4453C146.604 69.3203 146.242 69.2578 145.852 69.2578C145.122 69.2578 144.497 69.4349 143.977 69.7891C143.456 70.1432 143.055 70.651 142.773 71.3125C142.497 71.974 142.359 72.7656 142.359 73.6875V73.7031C142.359 74.6198 142.5 75.4089 142.781 76.0703C143.068 76.7318 143.471 77.2422 143.992 77.6016C144.518 77.9557 145.138 78.1328 145.852 78.1328ZM146.625 76.2422C146.224 76.2422 145.878 76.1406 145.586 75.9375C145.294 75.7344 145.07 75.4427 144.914 75.0625C144.758 74.6823 144.68 74.2292 144.68 73.7031V73.6875C144.68 73.1615 144.758 72.7109 144.914 72.3359C145.07 71.9557 145.294 71.6641 145.586 71.4609C145.883 71.2526 146.229 71.1484 146.625 71.1484C147.026 71.1484 147.372 71.2526 147.664 71.4609C147.961 71.6641 148.188 71.9557 148.344 72.3359C148.505 72.7109 148.586 73.1641 148.586 73.6953V73.7109C148.586 74.2318 148.505 74.6823 148.344 75.0625C148.188 75.4427 147.964 75.7344 147.672 75.9375C147.38 76.1406 147.031 76.2422 146.625 76.2422ZM156.273 78.1328C156.68 78.1328 157.049 78.0755 157.383 77.9609C157.716 77.8411 158.005 77.6719 158.25 77.4531C158.5 77.2344 158.698 76.9714 158.844 76.6641H158.984V78H161.266V66.1094H158.984V70.7734H158.844C158.703 70.4557 158.505 70.1849 158.25 69.9609C157.995 69.737 157.698 69.5651 157.359 69.4453C157.026 69.3203 156.664 69.2578 156.273 69.2578C155.544 69.2578 154.919 69.4349 154.398 69.7891C153.878 70.1432 153.477 70.651 153.195 71.3125C152.919 71.974 152.781 72.7656 152.781 73.6875V73.7031C152.781 74.6198 152.922 75.4089 153.203 76.0703C153.49 76.7318 153.893 77.2422 154.414 77.6016C154.94 77.9557 155.56 78.1328 156.273 78.1328ZM157.047 76.2422C156.646 76.2422 156.299 76.1406 156.008 75.9375C155.716 75.7344 155.492 75.4427 155.336 75.0625C155.18 74.6823 155.102 74.2292 155.102 73.7031V73.6875C155.102 73.1615 155.18 72.7109 155.336 72.3359C155.492 71.9557 155.716 71.6641 156.008 71.4609C156.305 71.2526 156.651 71.1484 157.047 71.1484C157.448 71.1484 157.794 71.2526 158.086 71.4609C158.383 71.6641 158.609 71.9557 158.766 72.3359C158.927 72.7109 159.008 73.1641 159.008 73.6953V73.7109C159.008 74.2318 158.927 74.6823 158.766 75.0625C158.609 75.4427 158.385 75.7344 158.094 75.9375C157.802 76.1406 157.453 76.2422 157.047 76.2422ZM163.625 78H165.906V73.1875C165.906 72.7812 165.992 72.4323 166.164 72.1406C166.336 71.849 166.581 71.625 166.898 71.4688C167.216 71.3073 167.591 71.2266 168.023 71.2266C168.201 71.2266 168.375 71.2396 168.547 71.2656C168.724 71.2865 168.898 71.3177 169.07 71.3594V69.3672C168.956 69.3359 168.823 69.3099 168.672 69.2891C168.526 69.2682 168.375 69.2578 168.219 69.2578C167.661 69.2578 167.195 69.388 166.82 69.6484C166.445 69.9036 166.188 70.2656 166.047 70.7344H165.906V69.3984H163.625V78ZM174.188 78.1797C174.818 78.1797 175.362 78.1016 175.82 77.9453C176.284 77.7839 176.669 77.5755 176.977 77.3203C177.289 77.0651 177.534 76.7917 177.711 76.5C177.888 76.2031 178.01 75.9193 178.078 75.6484L178.094 75.5703H175.969L175.945 75.6172C175.893 75.7266 175.794 75.849 175.648 75.9844C175.508 76.1146 175.32 76.2292 175.086 76.3281C174.852 76.4271 174.568 76.4766 174.234 76.4766C173.823 76.4766 173.469 76.3854 173.172 76.2031C172.875 76.0208 172.646 75.7578 172.484 75.4141C172.323 75.0703 172.242 74.6562 172.242 74.1719V73.25C172.242 72.75 172.323 72.3281 172.484 71.9844C172.651 71.6354 172.875 71.3724 173.156 71.1953C173.443 71.013 173.768 70.9219 174.133 70.9219C174.503 70.9219 174.826 71.0104 175.102 71.1875C175.383 71.3594 175.602 71.6172 175.758 71.9609C175.919 72.3047 176 72.7344 176 73.25V74.1641L177.07 72.8125H171.125V74.2422H178.164V73.5312C178.164 72.6615 178 71.9036 177.672 71.2578C177.344 70.612 176.875 70.1094 176.266 69.75C175.656 69.3906 174.932 69.2109 174.094 69.2109C173.26 69.2109 172.534 69.3958 171.914 69.7656C171.299 70.1354 170.823 70.6562 170.484 71.3281C170.151 72 169.984 72.7917 169.984 73.7031V73.7109C169.984 74.6328 170.154 75.4271 170.492 76.0938C170.831 76.7604 171.312 77.276 171.938 77.6406C172.568 78 173.318 78.1797 174.188 78.1797ZM183.453 78.1797C184.188 78.1797 184.839 78.0651 185.406 77.8359C185.974 77.6016 186.419 77.2734 186.742 76.8516C187.065 76.4297 187.227 75.9349 187.227 75.3672V75.3594C187.227 74.724 187.021 74.2188 186.609 73.8438C186.198 73.4688 185.562 73.1875 184.703 73L183.273 72.6953C182.977 72.6276 182.74 72.5521 182.562 72.4688C182.385 72.3854 182.258 72.2865 182.18 72.1719C182.102 72.0573 182.062 71.9245 182.062 71.7734V71.7656C182.062 71.5729 182.12 71.4062 182.234 71.2656C182.354 71.125 182.516 71.0156 182.719 70.9375C182.922 70.8594 183.154 70.8203 183.414 70.8203C183.841 70.8203 184.18 70.9115 184.43 71.0938C184.68 71.2708 184.836 71.4766 184.898 71.7109L184.906 71.75H187.023V71.7188C186.992 71.2552 186.833 70.8359 186.547 70.4609C186.266 70.0807 185.862 69.7786 185.336 69.5547C184.81 69.3255 184.172 69.2109 183.422 69.2109C182.708 69.2109 182.081 69.3229 181.539 69.5469C181.003 69.7708 180.583 70.0859 180.281 70.4922C179.984 70.8932 179.836 71.3646 179.836 71.9062V71.9141C179.836 72.3411 179.924 72.7161 180.102 73.0391C180.284 73.362 180.557 73.6354 180.922 73.8594C181.286 74.0781 181.742 74.2448 182.289 74.3594L183.727 74.6641C184.164 74.763 184.477 74.888 184.664 75.0391C184.852 75.1901 184.945 75.3802 184.945 75.6094V75.625C184.945 75.8125 184.883 75.9766 184.758 76.1172C184.633 76.2578 184.461 76.3698 184.242 76.4531C184.023 76.5312 183.768 76.5703 183.477 76.5703C183.029 76.5703 182.672 76.4844 182.406 76.3125C182.146 76.1406 181.969 75.9219 181.875 75.6562L181.859 75.625H179.617L179.625 75.6562C179.677 76.1458 179.857 76.5807 180.164 76.9609C180.477 77.3411 180.906 77.6406 181.453 77.8594C182.005 78.0729 182.672 78.1797 183.453 78.1797ZM192.359 78.1797C193.094 78.1797 193.745 78.0651 194.312 77.8359C194.88 77.6016 195.326 77.2734 195.648 76.8516C195.971 76.4297 196.133 75.9349 196.133 75.3672V75.3594C196.133 74.724 195.927 74.2188 195.516 73.8438C195.104 73.4688 194.469 73.1875 193.609 73L192.18 72.6953C191.883 72.6276 191.646 72.5521 191.469 72.4688C191.292 72.3854 191.164 72.2865 191.086 72.1719C191.008 72.0573 190.969 71.9245 190.969 71.7734V71.7656C190.969 71.5729 191.026 71.4062 191.141 71.2656C191.26 71.125 191.422 71.0156 191.625 70.9375C191.828 70.8594 192.06 70.8203 192.32 70.8203C192.747 70.8203 193.086 70.9115 193.336 71.0938C193.586 71.2708 193.742 71.4766 193.805 71.7109L193.812 71.75H195.93V71.7188C195.898 71.2552 195.74 70.8359 195.453 70.4609C195.172 70.0807 194.768 69.7786 194.242 69.5547C193.716 69.3255 193.078 69.2109 192.328 69.2109C191.615 69.2109 190.987 69.3229 190.445 69.5469C189.909 69.7708 189.49 70.0859 189.188 70.4922C188.891 70.8932 188.742 71.3646 188.742 71.9062V71.9141C188.742 72.3411 188.831 72.7161 189.008 73.0391C189.19 73.362 189.464 73.6354 189.828 73.8594C190.193 74.0781 190.648 74.2448 191.195 74.3594L192.633 74.6641C193.07 74.763 193.383 74.888 193.57 75.0391C193.758 75.1901 193.852 75.3802 193.852 75.6094V75.625C193.852 75.8125 193.789 75.9766 193.664 76.1172C193.539 76.2578 193.367 76.3698 193.148 76.4531C192.93 76.5312 192.674 76.5703 192.383 76.5703C191.935 76.5703 191.578 76.4844 191.312 76.3125C191.052 76.1406 190.875 75.9219 190.781 75.6562L190.766 75.625H188.523L188.531 75.6562C188.583 76.1458 188.763 76.5807 189.07 76.9609C189.383 77.3411 189.812 77.6406 190.359 77.8594C190.911 78.0729 191.578 78.1797 192.359 78.1797ZM203.531 78H207.414C208.221 78 208.914 77.8698 209.492 77.6094C210.076 77.3438 210.523 76.9714 210.836 76.4922C211.154 76.0078 211.312 75.4375 211.312 74.7812V74.7656C211.312 74.2865 211.201 73.8516 210.977 73.4609C210.758 73.0703 210.453 72.7526 210.062 72.5078C209.677 72.263 209.234 72.1224 208.734 72.0859V71.9453C209.12 71.888 209.466 71.7448 209.773 71.5156C210.081 71.2865 210.323 71 210.5 70.6562C210.682 70.3125 210.773 69.9427 210.773 69.5469V69.5312C210.773 68.9531 210.633 68.4557 210.352 68.0391C210.076 67.6172 209.677 67.2943 209.156 67.0703C208.641 66.8411 208.016 66.7266 207.281 66.7266H203.531V68.4766H206.68C207.242 68.4766 207.677 68.6068 207.984 68.8672C208.297 69.1224 208.453 69.4792 208.453 69.9375V69.9531C208.453 70.4167 208.284 70.776 207.945 71.0312C207.607 71.2865 207.12 71.4141 206.484 71.4141H203.531V72.9688H206.758C207.221 72.9688 207.612 73.0312 207.93 73.1562C208.253 73.276 208.495 73.4557 208.656 73.6953C208.823 73.9349 208.906 74.2292 208.906 74.5781V74.5938C208.906 75.1302 208.727 75.5391 208.367 75.8203C208.013 76.1016 207.495 76.2422 206.812 76.2422H203.531V78ZM202.352 78H204.711V66.7266H202.352V78ZM215.562 78.1328C215.938 78.1328 216.284 78.0833 216.602 77.9844C216.924 77.8802 217.206 77.7344 217.445 77.5469C217.69 77.3542 217.885 77.125 218.031 76.8594H218.172V78H220.422V72.125C220.422 71.5156 220.281 70.9948 220 70.5625C219.724 70.125 219.32 69.7917 218.789 69.5625C218.258 69.3281 217.612 69.2109 216.852 69.2109C216.133 69.2109 215.5 69.3151 214.953 69.5234C214.411 69.7318 213.979 70.0234 213.656 70.3984C213.339 70.7734 213.148 71.2135 213.086 71.7188L213.078 71.7891H215.188L215.203 71.7578C215.292 71.5026 215.464 71.3073 215.719 71.1719C215.979 71.0312 216.315 70.9609 216.727 70.9609C217.195 70.9609 217.552 71.0625 217.797 71.2656C218.047 71.4635 218.172 71.75 218.172 72.125V74.8672C218.172 75.1693 218.091 75.4427 217.93 75.6875C217.768 75.9271 217.549 76.1172 217.273 76.2578C216.997 76.3984 216.682 76.4688 216.328 76.4688C215.932 76.4688 215.609 76.375 215.359 76.1875C215.109 76 214.984 75.7422 214.984 75.4141V75.3984C214.984 75.0859 215.104 74.8385 215.344 74.6562C215.583 74.474 215.948 74.3698 216.438 74.3438L219.297 74.1562V72.7656L216.094 72.9609C215.38 73.0026 214.773 73.1302 214.273 73.3438C213.779 73.5521 213.401 73.8411 213.141 74.2109C212.885 74.5807 212.758 75.0234 212.758 75.5391V75.5547C212.758 76.0755 212.878 76.5312 213.117 76.9219C213.357 77.3073 213.688 77.6068 214.109 77.8203C214.536 78.0286 215.021 78.1328 215.562 78.1328ZM222.656 78H224.938V73.1875C224.938 72.7812 225.023 72.4323 225.195 72.1406C225.367 71.849 225.612 71.625 225.93 71.4688C226.247 71.3073 226.622 71.2266 227.055 71.2266C227.232 71.2266 227.406 71.2396 227.578 71.2656C227.755 71.2865 227.93 71.3177 228.102 71.3594V69.3672C227.987 69.3359 227.854 69.3099 227.703 69.2891C227.557 69.2682 227.406 69.2578 227.25 69.2578C226.693 69.2578 226.227 69.388 225.852 69.6484C225.477 69.9036 225.219 70.2656 225.078 70.7344H224.938V69.3984H222.656V78Z" fill="black"/>
<defs>
<clipPath id="clip0_1347_308">
<rect width="24" height="24" fill="white" transform="translate(241 216)"/>
</clipPath>
</defs>
</svg>
